<?xml version="1.0" encoding="utf-8" standalone="no"?>
<!DOCTYPE svg PUBLIC "-//W3C//DTD SVG 1.1//EN"
  "http://www.w3.org/Graphics/SVG/1.1/DTD/svg11.dtd">
<svg xmlns:xlink="http://www.w3.org/1999/xlink" width="1152pt" height="576pt" viewBox="0 0 1152 576" xmlns="http://www.w3.org/2000/svg" version="1.1">
 <metadata>
  <rdf:RDF xmlns:dc="http://purl.org/dc/elements/1.1/" xmlns:cc="http://creativecommons.org/ns#" xmlns:rdf="http://www.w3.org/1999/02/22-rdf-syntax-ns#">
   <cc:Work>
    <dc:type rdf:resource="http://purl.org/dc/dcmitype/StillImage"/>
    <dc:date>2025-08-20T23:11:51.667975</dc:date>
    <dc:format>image/svg+xml</dc:format>
    <dc:creator>
     <cc:Agent>
      <dc:title>Matplotlib v3.5.0, https://matplotlib.org/</dc:title>
     </cc:Agent>
    </dc:creator>
   </cc:Work>
  </rdf:RDF>
 </metadata>
 <defs>
  <style type="text/css">*{stroke-linejoin: round; stroke-linecap: butt}</style>
 </defs>
 <g id="figure_1">
  <g id="patch_1">
   <path d="M 0 576 
L 1152 576 
L 1152 0 
L 0 0 
L 0 576 
z
" style="fill: none"/>
  </g>
  <g id="axes_1">
   <g id="patch_2">
    <path d="M 503.925568 288 
C 503.925568 259.051883 498.22342 230.38525 487.145456 203.640677 
C 476.067491 176.896104 459.829148 152.593706 439.359738 132.124296 
C 418.890328 111.654887 394.58793 95.416543 367.843357 84.338579 
C 341.098784 73.260614 312.432151 67.558466 283.484034 67.558466 
C 254.535917 67.558466 225.869284 73.260614 199.124711 84.338579 
C 172.380138 95.416543 148.07774 111.654887 127.60833 132.124296 
C 107.138921 152.593706 90.900577 176.896104 79.822613 203.640677 
C 68.744648 230.38525 63.0425 259.051883 63.0425 288 
C 63.0425 316.948117 68.744648 345.61475 79.822613 372.359323 
C 90.900577 399.103896 107.138921 423.406294 127.60833 443.875704 
C 148.07774 464.345113 172.380138 480.583457 199.124711 491.661421 
C 225.869284 502.739386 254.535917 508.441534 283.484034 508.441534 
C 312.432151 508.441534 341.098784 502.739386 367.843357 491.661421 
C 394.58793 480.583457 418.890328 464.345113 439.359738 443.875704 
C 459.829148 423.406294 476.067491 399.103896 487.145456 372.359323 
C 498.22342 345.61475 503.925568 316.948117 503.925568 288 
M 283.484034 288 
C 283.484034 288 283.484034 288 283.484034 288 
C 283.484034 288 283.484034 288 283.484034 288 
C 283.484034 288 283.484034 288 283.484034 288 
C 283.484034 288 283.484034 288 283.484034 288 
C 283.484034 288 283.484034 288 283.484034 288 
C 283.484034 288 283.484034 288 283.484034 288 
C 283.484034 288 283.484034 288 283.484034 288 
C 283.484034 288 283.484034 288 283.484034 288 
C 283.484034 288 283.484034 288 283.484034 288 
C 283.484034 288 283.484034 288 283.484034 288 
C 283.484034 288 283.484034 288 283.484034 288 
C 283.484034 288 283.484034 288 283.484034 288 
C 283.484034 288 283.484034 288 283.484034 288 
C 283.484034 288 283.484034 288 283.484034 288 
C 283.484034 288 283.484034 288 283.484034 288 
C 283.484034 288 283.484034 288 283.484034 288 
M 503.925568 288 
z
" style="fill: #ffffff"/>
   </g>
   <g id="patch_3">
    <path d="M 436.6909 288 
L 372.762855 133.364545 
L 239.83661 212.400444 
L 161.138983 288 
L 218.674223 400.253886 
L 352.372013 407.31748 
z
" clip-path="url(#p940ee1258d)" style="fill: #00a087; opacity: 0.15; stroke: #00a087; stroke-linejoin: miter"/>
   </g>
   <g id="patch_4">
    <path d="M 456.75108 288 
L 384.115594 113.701025 
L 196.850511 137.946337 
L 109.996547 288 
L 204.125082 425.453737 
L 351.159585 405.217493 
z
" clip-path="url(#p940ee1258d)" style="fill: #4dbbd5; opacity: 0.15; stroke: #4dbbd5; stroke-linejoin: miter"/>
   </g>
   <g id="matplotlib.axis_1">
    <g id="xtick_1">
     <g id="line2d_1">
      <path d="M 283.484034 288 
L 503.925568 288 
" clip-path="url(#p940ee1258d)" style="fill: none; stroke-dasharray: 2.96,1.28; stroke-dashoffset: 0; stroke: #808080; stroke-opacity: 0.5; stroke-width: 0.8"/>
     </g>
     <g id="text_1">
      <!-- MMLU -->
      <g style="fill: #333333" transform="translate(493.034318 291.84375)scale(0.16 -0.16)">
       <defs>
        <path id="TimesNewRomanPSMT-4d" d="M 2619 0 
L 981 3566 
L 981 734 
Q 981 344 1066 247 
Q 1181 116 1431 116 
L 1581 116 
L 1581 0 
L 106 0 
L 106 116 
L 256 116 
Q 525 116 638 278 
Q 706 378 706 734 
L 706 3503 
Q 706 3784 644 3909 
Q 600 4000 483 4061 
Q 366 4122 106 4122 
L 106 4238 
L 1306 4238 
L 2844 922 
L 4356 4238 
L 5556 4238 
L 5556 4122 
L 5409 4122 
Q 5138 4122 5025 3959 
Q 4956 3859 4956 3503 
L 4956 734 
Q 4956 344 5044 247 
Q 5159 116 5409 116 
L 5556 116 
L 5556 0 
L 3756 0 
L 3756 116 
L 3906 116 
Q 4178 116 4288 278 
Q 4356 378 4356 734 
L 4356 3566 
L 2722 0 
L 2619 0 
z
" transform="scale(0.015625)"/>
        <path id="TimesNewRomanPSMT-4c" d="M 3669 1172 
L 3772 1150 
L 3409 0 
L 128 0 
L 128 116 
L 288 116 
Q 556 116 672 291 
Q 738 391 738 753 
L 738 3488 
Q 738 3884 650 3984 
Q 528 4122 288 4122 
L 128 4122 
L 128 4238 
L 2047 4238 
L 2047 4122 
Q 1709 4125 1573 4059 
Q 1438 3994 1388 3894 
Q 1338 3794 1338 3416 
L 1338 753 
Q 1338 494 1388 397 
Q 1425 331 1503 300 
Q 1581 269 1991 269 
L 2300 269 
Q 2788 269 2984 341 
Q 3181 413 3343 595 
Q 3506 778 3669 1172 
z
" transform="scale(0.015625)"/>
        <path id="TimesNewRomanPSMT-55" d="M 3053 4122 
L 3053 4238 
L 4553 4238 
L 4553 4122 
L 4394 4122 
Q 4144 4122 4009 3913 
Q 3944 3816 3944 3463 
L 3944 1744 
Q 3944 1106 3817 754 
Q 3691 403 3320 151 
Q 2950 -100 2313 -100 
Q 1619 -100 1259 140 
Q 900 381 750 788 
Q 650 1066 650 1831 
L 650 3488 
Q 650 3878 542 4000 
Q 434 4122 194 4122 
L 34 4122 
L 34 4238 
L 1866 4238 
L 1866 4122 
L 1703 4122 
Q 1441 4122 1328 3956 
Q 1250 3844 1250 3488 
L 1250 1641 
Q 1250 1394 1295 1075 
Q 1341 756 1459 578 
Q 1578 400 1801 284 
Q 2025 169 2350 169 
Q 2766 169 3094 350 
Q 3422 531 3542 814 
Q 3663 1097 3663 1772 
L 3663 3488 
Q 3663 3884 3575 3984 
Q 3453 4122 3213 4122 
L 3053 4122 
z
" transform="scale(0.015625)"/>
       </defs>
       <use xlink:href="#TimesNewRomanPSMT-4d"/>
       <use xlink:href="#TimesNewRomanPSMT-4d" x="88.916016"/>
       <use xlink:href="#TimesNewRomanPSMT-4c" x="177.832031"/>
       <use xlink:href="#TimesNewRomanPSMT-55" x="238.916016"/>
      </g>
     </g>
    </g>
    <g id="xtick_2">
     <g id="line2d_2">
      <path d="M 283.484034 288 
L 393.704801 97.092031 
" clip-path="url(#p940ee1258d)" style="fill: none; stroke-dasharray: 2.96,1.28; stroke-dashoffset: 0; stroke: #808080; stroke-opacity: 0.5; stroke-width: 0.8"/>
     </g>
     <g id="text_2">
      <!-- GSM8K -->
      <g style="fill: #333333" transform="translate(373.587301 88.811426)scale(0.16 -0.16)">
       <defs>
        <path id="TimesNewRomanPSMT-47" d="M 3928 4334 
L 4038 2997 
L 3928 2997 
Q 3763 3497 3500 3750 
Q 3122 4116 2528 4116 
Q 1719 4116 1297 3475 
Q 944 2934 944 2188 
Q 944 1581 1178 1081 
Q 1413 581 1792 348 
Q 2172 116 2572 116 
Q 2806 116 3025 175 
Q 3244 234 3447 350 
L 3447 1575 
Q 3447 1894 3398 1992 
Q 3350 2091 3248 2142 
Q 3147 2194 2891 2194 
L 2891 2313 
L 4531 2313 
L 4531 2194 
L 4453 2194 
Q 4209 2194 4119 2031 
Q 4056 1916 4056 1575 
L 4056 278 
Q 3697 84 3347 -6 
Q 2997 -97 2569 -97 
Q 1341 -97 703 691 
Q 225 1281 225 2053 
Q 225 2613 494 3125 
Q 813 3734 1369 4063 
Q 1834 4334 2469 4334 
Q 2700 4334 2889 4296 
Q 3078 4259 3425 4131 
Q 3600 4066 3659 4066 
Q 3719 4066 3761 4120 
Q 3803 4175 3813 4334 
L 3928 4334 
z
" transform="scale(0.015625)"/>
        <path id="TimesNewRomanPSMT-53" d="M 2934 4334 
L 2934 2869 
L 2819 2869 
Q 2763 3291 2617 3541 
Q 2472 3791 2203 3937 
Q 1934 4084 1647 4084 
Q 1322 4084 1109 3886 
Q 897 3688 897 3434 
Q 897 3241 1031 3081 
Q 1225 2847 1953 2456 
Q 2547 2138 2764 1967 
Q 2981 1797 3098 1565 
Q 3216 1334 3216 1081 
Q 3216 600 2842 251 
Q 2469 -97 1881 -97 
Q 1697 -97 1534 -69 
Q 1438 -53 1133 45 
Q 828 144 747 144 
Q 669 144 623 97 
Q 578 50 556 -97 
L 441 -97 
L 441 1356 
L 556 1356 
Q 638 900 775 673 
Q 913 447 1195 297 
Q 1478 147 1816 147 
Q 2206 147 2432 353 
Q 2659 559 2659 841 
Q 2659 997 2573 1156 
Q 2488 1316 2306 1453 
Q 2184 1547 1640 1851 
Q 1097 2156 867 2337 
Q 638 2519 519 2737 
Q 400 2956 400 3219 
Q 400 3675 750 4004 
Q 1100 4334 1641 4334 
Q 1978 4334 2356 4169 
Q 2531 4091 2603 4091 
Q 2684 4091 2736 4139 
Q 2788 4188 2819 4334 
L 2934 4334 
z
" transform="scale(0.015625)"/>
        <path id="TimesNewRomanPSMT-38" d="M 1228 2134 
Q 725 2547 579 2797 
Q 434 3047 434 3316 
Q 434 3728 753 4026 
Q 1072 4325 1600 4325 
Q 2113 4325 2425 4047 
Q 2738 3769 2738 3413 
Q 2738 3175 2569 2928 
Q 2400 2681 1866 2347 
Q 2416 1922 2594 1678 
Q 2831 1359 2831 1006 
Q 2831 559 2490 242 
Q 2150 -75 1597 -75 
Q 994 -75 656 303 
Q 388 606 388 966 
Q 388 1247 577 1523 
Q 766 1800 1228 2134 
z
M 1719 2469 
Q 2094 2806 2194 3001 
Q 2294 3197 2294 3444 
Q 2294 3772 2109 3958 
Q 1925 4144 1606 4144 
Q 1288 4144 1088 3959 
Q 888 3775 888 3528 
Q 888 3366 970 3203 
Q 1053 3041 1206 2894 
L 1719 2469 
z
M 1375 2016 
Q 1116 1797 991 1539 
Q 866 1281 866 981 
Q 866 578 1086 336 
Q 1306 94 1647 94 
Q 1984 94 2187 284 
Q 2391 475 2391 747 
Q 2391 972 2272 1150 
Q 2050 1481 1375 2016 
z
" transform="scale(0.015625)"/>
        <path id="TimesNewRomanPSMT-4b" d="M 1913 2350 
L 3475 797 
Q 3859 413 4131 273 
Q 4403 134 4675 116 
L 4675 0 
L 2659 0 
L 2659 116 
Q 2841 116 2920 177 
Q 3000 238 3000 313 
Q 3000 388 2970 447 
Q 2941 506 2775 669 
L 1313 2116 
L 1313 750 
Q 1313 428 1353 325 
Q 1384 247 1484 191 
Q 1619 116 1769 116 
L 1913 116 
L 1913 0 
L 106 0 
L 106 116 
L 256 116 
Q 519 116 638 269 
Q 713 369 713 750 
L 713 3488 
Q 713 3809 672 3916 
Q 641 3991 544 4047 
Q 406 4122 256 4122 
L 106 4122 
L 106 4238 
L 1913 4238 
L 1913 4122 
L 1769 4122 
Q 1622 4122 1484 4050 
Q 1388 4000 1350 3900 
Q 1313 3800 1313 3488 
L 1313 2191 
Q 1375 2250 1741 2588 
Q 2669 3438 2863 3722 
Q 2947 3847 2947 3941 
Q 2947 4013 2881 4067 
Q 2816 4122 2659 4122 
L 2563 4122 
L 2563 4238 
L 4119 4238 
L 4119 4122 
Q 3981 4119 3868 4084 
Q 3756 4050 3593 3951 
Q 3431 3853 3194 3634 
Q 3125 3572 2559 2994 
L 1913 2350 
z
" transform="scale(0.015625)"/>
       </defs>
       <use xlink:href="#TimesNewRomanPSMT-47"/>
       <use xlink:href="#TimesNewRomanPSMT-53" x="72.216797"/>
       <use xlink:href="#TimesNewRomanPSMT-4d" x="127.832031"/>
       <use xlink:href="#TimesNewRomanPSMT-38" x="216.748047"/>
       <use xlink:href="#TimesNewRomanPSMT-4b" x="266.748047"/>
      </g>
     </g>
    </g>
    <g id="xtick_3">
     <g id="line2d_3">
      <path d="M 283.484034 288 
L 173.263267 97.092031 
" clip-path="url(#p940ee1258d)" style="fill: none; stroke-dasharray: 2.96,1.28; stroke-dashoffset: 0; stroke: #808080; stroke-opacity: 0.5; stroke-width: 0.8"/>
     </g>
     <g id="text_3">
      <!-- Math-500 -->
      <g style="fill: #333333" transform="translate(134.712017 88.811426)scale(0.16 -0.16)">
       <defs>
        <path id="TimesNewRomanPSMT-61" d="M 1822 413 
Q 1381 72 1269 19 
Q 1100 -59 909 -59 
Q 613 -59 420 144 
Q 228 347 228 678 
Q 228 888 322 1041 
Q 450 1253 767 1440 
Q 1084 1628 1822 1897 
L 1822 2009 
Q 1822 2438 1686 2597 
Q 1550 2756 1291 2756 
Q 1094 2756 978 2650 
Q 859 2544 859 2406 
L 866 2225 
Q 866 2081 792 2003 
Q 719 1925 600 1925 
Q 484 1925 411 2006 
Q 338 2088 338 2228 
Q 338 2497 613 2722 
Q 888 2947 1384 2947 
Q 1766 2947 2009 2819 
Q 2194 2722 2281 2516 
Q 2338 2381 2338 1966 
L 2338 994 
Q 2338 584 2353 492 
Q 2369 400 2405 369 
Q 2441 338 2488 338 
Q 2538 338 2575 359 
Q 2641 400 2828 588 
L 2828 413 
Q 2478 -56 2159 -56 
Q 2006 -56 1915 50 
Q 1825 156 1822 413 
z
M 1822 616 
L 1822 1706 
Q 1350 1519 1213 1441 
Q 966 1303 859 1153 
Q 753 1003 753 825 
Q 753 600 887 451 
Q 1022 303 1197 303 
Q 1434 303 1822 616 
z
" transform="scale(0.015625)"/>
        <path id="TimesNewRomanPSMT-74" d="M 1031 3803 
L 1031 2863 
L 1700 2863 
L 1700 2644 
L 1031 2644 
L 1031 788 
Q 1031 509 1111 412 
Q 1191 316 1316 316 
Q 1419 316 1516 380 
Q 1613 444 1666 569 
L 1788 569 
Q 1678 263 1478 108 
Q 1278 -47 1066 -47 
Q 922 -47 784 33 
Q 647 113 581 261 
Q 516 409 516 719 
L 516 2644 
L 63 2644 
L 63 2747 
Q 234 2816 414 2980 
Q 594 3144 734 3369 
Q 806 3488 934 3803 
L 1031 3803 
z
" transform="scale(0.015625)"/>
        <path id="TimesNewRomanPSMT-68" d="M 1041 4444 
L 1041 2350 
Q 1388 2731 1591 2839 
Q 1794 2947 1997 2947 
Q 2241 2947 2416 2812 
Q 2591 2678 2675 2391 
Q 2734 2191 2734 1659 
L 2734 647 
Q 2734 375 2778 275 
Q 2809 200 2884 156 
Q 2959 113 3159 113 
L 3159 0 
L 1753 0 
L 1753 113 
L 1819 113 
Q 2019 113 2097 173 
Q 2175 234 2206 353 
Q 2216 403 2216 647 
L 2216 1659 
Q 2216 2128 2167 2275 
Q 2119 2422 2012 2495 
Q 1906 2569 1756 2569 
Q 1603 2569 1437 2487 
Q 1272 2406 1041 2159 
L 1041 647 
Q 1041 353 1073 281 
Q 1106 209 1195 161 
Q 1284 113 1503 113 
L 1503 0 
L 84 0 
L 84 113 
Q 275 113 384 172 
Q 447 203 484 290 
Q 522 378 522 647 
L 522 3238 
Q 522 3728 498 3840 
Q 475 3953 426 3993 
Q 378 4034 297 4034 
Q 231 4034 84 3984 
L 41 4094 
L 897 4444 
L 1041 4444 
z
" transform="scale(0.015625)"/>
        <path id="TimesNewRomanPSMT-2d" d="M 259 1672 
L 1875 1672 
L 1875 1200 
L 259 1200 
L 259 1672 
z
" transform="scale(0.015625)"/>
        <path id="TimesNewRomanPSMT-35" d="M 2778 4238 
L 2534 3706 
L 1259 3706 
L 981 3138 
Q 1809 3016 2294 2522 
Q 2709 2097 2709 1522 
Q 2709 1188 2573 903 
Q 2438 619 2231 419 
Q 2025 219 1772 97 
Q 1413 -75 1034 -75 
Q 653 -75 479 54 
Q 306 184 306 341 
Q 306 428 378 495 
Q 450 563 559 563 
Q 641 563 702 538 
Q 763 513 909 409 
Q 1144 247 1384 247 
Q 1750 247 2026 523 
Q 2303 800 2303 1197 
Q 2303 1581 2056 1914 
Q 1809 2247 1375 2428 
Q 1034 2569 447 2591 
L 1259 4238 
L 2778 4238 
z
" transform="scale(0.015625)"/>
        <path id="TimesNewRomanPSMT-30" d="M 231 2094 
Q 231 2819 450 3342 
Q 669 3866 1031 4122 
Q 1313 4325 1613 4325 
Q 2100 4325 2488 3828 
Q 2972 3213 2972 2159 
Q 2972 1422 2759 906 
Q 2547 391 2217 158 
Q 1888 -75 1581 -75 
Q 975 -75 572 641 
Q 231 1244 231 2094 
z
M 844 2016 
Q 844 1141 1059 588 
Q 1238 122 1591 122 
Q 1759 122 1940 273 
Q 2122 425 2216 781 
Q 2359 1319 2359 2297 
Q 2359 3022 2209 3506 
Q 2097 3866 1919 4016 
Q 1791 4119 1609 4119 
Q 1397 4119 1231 3928 
Q 1006 3669 925 3112 
Q 844 2556 844 2016 
z
" transform="scale(0.015625)"/>
       </defs>
       <use xlink:href="#TimesNewRomanPSMT-4d"/>
       <use xlink:href="#TimesNewRomanPSMT-61" x="88.916016"/>
       <use xlink:href="#TimesNewRomanPSMT-74" x="133.300781"/>
       <use xlink:href="#TimesNewRomanPSMT-68" x="161.083984"/>
       <use xlink:href="#TimesNewRomanPSMT-2d" x="211.083984"/>
       <use xlink:href="#TimesNewRomanPSMT-35" x="244.384766"/>
       <use xlink:href="#TimesNewRomanPSMT-30" x="294.384766"/>
       <use xlink:href="#TimesNewRomanPSMT-30" x="344.384766"/>
      </g>
     </g>
    </g>
    <g id="xtick_4">
     <g id="line2d_4">
      <path d="M 283.484034 288 
L 63.0425 288 
" clip-path="url(#p940ee1258d)" style="fill: none; stroke-dasharray: 2.96,1.28; stroke-dashoffset: 0; stroke: #808080; stroke-opacity: 0.5; stroke-width: 0.8"/>
     </g>
     <g id="text_4">
      <!-- HumanEval -->
      <g style="fill: #333333" transform="translate(10.83125 291.84375)scale(0.16 -0.16)">
       <defs>
        <path id="TimesNewRomanPSMT-48" d="M 1316 2272 
L 3284 2272 
L 3284 3484 
Q 3284 3809 3244 3913 
Q 3213 3991 3113 4047 
Q 2978 4122 2828 4122 
L 2678 4122 
L 2678 4238 
L 4491 4238 
L 4491 4122 
L 4341 4122 
Q 4191 4122 4056 4050 
Q 3956 4000 3920 3898 
Q 3884 3797 3884 3484 
L 3884 750 
Q 3884 428 3925 325 
Q 3956 247 4053 191 
Q 4191 116 4341 116 
L 4491 116 
L 4491 0 
L 2678 0 
L 2678 116 
L 2828 116 
Q 3088 116 3206 269 
Q 3284 369 3284 750 
L 3284 2041 
L 1316 2041 
L 1316 750 
Q 1316 428 1356 325 
Q 1388 247 1488 191 
Q 1622 116 1772 116 
L 1925 116 
L 1925 0 
L 109 0 
L 109 116 
L 259 116 
Q 522 116 641 269 
Q 716 369 716 750 
L 716 3484 
Q 716 3809 675 3913 
Q 644 3991 547 4047 
Q 409 4122 259 4122 
L 109 4122 
L 109 4238 
L 1925 4238 
L 1925 4122 
L 1772 4122 
Q 1622 4122 1488 4050 
Q 1391 4000 1353 3898 
Q 1316 3797 1316 3484 
L 1316 2272 
z
" transform="scale(0.015625)"/>
        <path id="TimesNewRomanPSMT-75" d="M 2709 2863 
L 2709 1128 
Q 2709 631 2732 520 
Q 2756 409 2807 365 
Q 2859 322 2928 322 
Q 3025 322 3147 375 
L 3191 266 
L 2334 -88 
L 2194 -88 
L 2194 519 
Q 1825 119 1631 15 
Q 1438 -88 1222 -88 
Q 981 -88 804 51 
Q 628 191 559 409 
Q 491 628 491 1028 
L 491 2306 
Q 491 2509 447 2587 
Q 403 2666 317 2708 
Q 231 2750 6 2747 
L 6 2863 
L 1009 2863 
L 1009 947 
Q 1009 547 1148 422 
Q 1288 297 1484 297 
Q 1619 297 1789 381 
Q 1959 466 2194 703 
L 2194 2325 
Q 2194 2569 2105 2655 
Q 2016 2741 1734 2747 
L 1734 2863 
L 2709 2863 
z
" transform="scale(0.015625)"/>
        <path id="TimesNewRomanPSMT-6d" d="M 1050 2338 
Q 1363 2650 1419 2697 
Q 1559 2816 1721 2881 
Q 1884 2947 2044 2947 
Q 2313 2947 2506 2790 
Q 2700 2634 2766 2338 
Q 3088 2713 3309 2830 
Q 3531 2947 3766 2947 
Q 3994 2947 4170 2830 
Q 4347 2713 4450 2447 
Q 4519 2266 4519 1878 
L 4519 647 
Q 4519 378 4559 278 
Q 4591 209 4675 161 
Q 4759 113 4950 113 
L 4950 0 
L 3538 0 
L 3538 113 
L 3597 113 
Q 3781 113 3884 184 
Q 3956 234 3988 344 
Q 4000 397 4000 647 
L 4000 1878 
Q 4000 2228 3916 2372 
Q 3794 2572 3525 2572 
Q 3359 2572 3192 2489 
Q 3025 2406 2788 2181 
L 2781 2147 
L 2788 2013 
L 2788 647 
Q 2788 353 2820 281 
Q 2853 209 2943 161 
Q 3034 113 3253 113 
L 3253 0 
L 1806 0 
L 1806 113 
Q 2044 113 2133 169 
Q 2222 225 2256 338 
Q 2272 391 2272 647 
L 2272 1878 
Q 2272 2228 2169 2381 
Q 2031 2581 1784 2581 
Q 1616 2581 1450 2491 
Q 1191 2353 1050 2181 
L 1050 647 
Q 1050 366 1089 281 
Q 1128 197 1204 155 
Q 1281 113 1516 113 
L 1516 0 
L 100 0 
L 100 113 
Q 297 113 375 155 
Q 453 197 493 289 
Q 534 381 534 647 
L 534 1741 
Q 534 2213 506 2350 
Q 484 2453 437 2492 
Q 391 2531 309 2531 
Q 222 2531 100 2484 
L 53 2597 
L 916 2947 
L 1050 2947 
L 1050 2338 
z
" transform="scale(0.015625)"/>
        <path id="TimesNewRomanPSMT-6e" d="M 1034 2341 
Q 1538 2947 1994 2947 
Q 2228 2947 2397 2830 
Q 2566 2713 2666 2444 
Q 2734 2256 2734 1869 
L 2734 647 
Q 2734 375 2778 278 
Q 2813 200 2889 156 
Q 2966 113 3172 113 
L 3172 0 
L 1756 0 
L 1756 113 
L 1816 113 
Q 2016 113 2095 173 
Q 2175 234 2206 353 
Q 2219 400 2219 647 
L 2219 1819 
Q 2219 2209 2117 2386 
Q 2016 2563 1775 2563 
Q 1403 2563 1034 2156 
L 1034 647 
Q 1034 356 1069 288 
Q 1113 197 1189 155 
Q 1266 113 1500 113 
L 1500 0 
L 84 0 
L 84 113 
L 147 113 
Q 366 113 442 223 
Q 519 334 519 647 
L 519 1709 
Q 519 2225 495 2337 
Q 472 2450 423 2490 
Q 375 2531 294 2531 
Q 206 2531 84 2484 
L 38 2597 
L 900 2947 
L 1034 2947 
L 1034 2341 
z
" transform="scale(0.015625)"/>
        <path id="TimesNewRomanPSMT-45" d="M 1338 4006 
L 1338 2331 
L 2269 2331 
Q 2631 2331 2753 2441 
Q 2916 2584 2934 2947 
L 3050 2947 
L 3050 1472 
L 2934 1472 
Q 2891 1781 2847 1869 
Q 2791 1978 2662 2040 
Q 2534 2103 2269 2103 
L 1338 2103 
L 1338 706 
Q 1338 425 1363 364 
Q 1388 303 1450 267 
Q 1513 231 1688 231 
L 2406 231 
Q 2766 231 2928 281 
Q 3091 331 3241 478 
Q 3434 672 3638 1063 
L 3763 1063 
L 3397 0 
L 131 0 
L 131 116 
L 281 116 
Q 431 116 566 188 
Q 666 238 702 338 
Q 738 438 738 747 
L 738 3500 
Q 738 3903 656 3997 
Q 544 4122 281 4122 
L 131 4122 
L 131 4238 
L 3397 4238 
L 3444 3309 
L 3322 3309 
Q 3256 3644 3176 3769 
Q 3097 3894 2941 3959 
Q 2816 4006 2500 4006 
L 1338 4006 
z
" transform="scale(0.015625)"/>
        <path id="TimesNewRomanPSMT-76" d="M 53 2863 
L 1400 2863 
L 1400 2747 
L 1313 2747 
Q 1191 2747 1127 2687 
Q 1063 2628 1063 2528 
Q 1063 2419 1128 2269 
L 1794 688 
L 2463 2328 
Q 2534 2503 2534 2594 
Q 2534 2638 2509 2666 
Q 2475 2713 2422 2730 
Q 2369 2747 2206 2747 
L 2206 2863 
L 3141 2863 
L 3141 2747 
Q 2978 2734 2916 2681 
Q 2806 2588 2719 2369 
L 1703 -88 
L 1575 -88 
L 553 2328 
Q 484 2497 421 2570 
Q 359 2644 263 2694 
Q 209 2722 53 2747 
L 53 2863 
z
" transform="scale(0.015625)"/>
        <path id="TimesNewRomanPSMT-6c" d="M 1184 4444 
L 1184 647 
Q 1184 378 1223 290 
Q 1263 203 1344 158 
Q 1425 113 1647 113 
L 1647 0 
L 244 0 
L 244 113 
Q 441 113 512 153 
Q 584 194 625 287 
Q 666 381 666 647 
L 666 3247 
Q 666 3731 644 3842 
Q 622 3953 573 3993 
Q 525 4034 450 4034 
Q 369 4034 244 3984 
L 191 4094 
L 1044 4444 
L 1184 4444 
z
" transform="scale(0.015625)"/>
       </defs>
       <use xlink:href="#TimesNewRomanPSMT-48"/>
       <use xlink:href="#TimesNewRomanPSMT-75" x="72.216797"/>
       <use xlink:href="#TimesNewRomanPSMT-6d" x="122.216797"/>
       <use xlink:href="#TimesNewRomanPSMT-61" x="200"/>
       <use xlink:href="#TimesNewRomanPSMT-6e" x="244.384766"/>
       <use xlink:href="#TimesNewRomanPSMT-45" x="294.384766"/>
       <use xlink:href="#TimesNewRomanPSMT-76" x="355.46875"/>
       <use xlink:href="#TimesNewRomanPSMT-61" x="405.46875"/>
       <use xlink:href="#TimesNewRomanPSMT-6c" x="449.853516"/>
      </g>
     </g>
    </g>
    <g id="xtick_5">
     <g id="line2d_5">
      <path d="M 283.484034 288 
L 173.263267 478.907969 
" clip-path="url(#p940ee1258d)" style="fill: none; stroke-dasharray: 2.96,1.28; stroke-dashoffset: 0; stroke: #808080; stroke-opacity: 0.5; stroke-width: 0.8"/>
     </g>
     <g id="text_5">
      <!-- MBPP -->
      <g style="fill: #333333" transform="translate(144.915767 494.876074)scale(0.16 -0.16)">
       <defs>
        <path id="TimesNewRomanPSMT-42" d="M 2956 2163 
Q 3397 2069 3616 1863 
Q 3919 1575 3919 1159 
Q 3919 844 3719 555 
Q 3519 266 3170 133 
Q 2822 0 2106 0 
L 106 0 
L 106 116 
L 266 116 
Q 531 116 647 284 
Q 719 394 719 750 
L 719 3488 
Q 719 3881 628 3984 
Q 506 4122 266 4122 
L 106 4122 
L 106 4238 
L 1938 4238 
Q 2450 4238 2759 4163 
Q 3228 4050 3475 3764 
Q 3722 3478 3722 3106 
Q 3722 2788 3528 2536 
Q 3334 2284 2956 2163 
z
M 1319 2331 
Q 1434 2309 1582 2298 
Q 1731 2288 1909 2288 
Q 2366 2288 2595 2386 
Q 2825 2484 2947 2687 
Q 3069 2891 3069 3131 
Q 3069 3503 2766 3765 
Q 2463 4028 1881 4028 
Q 1569 4028 1319 3959 
L 1319 2331 
z
M 1319 306 
Q 1681 222 2034 222 
Q 2600 222 2897 476 
Q 3194 731 3194 1106 
Q 3194 1353 3059 1581 
Q 2925 1809 2622 1940 
Q 2319 2072 1872 2072 
Q 1678 2072 1540 2065 
Q 1403 2059 1319 2044 
L 1319 306 
z
" transform="scale(0.015625)"/>
        <path id="TimesNewRomanPSMT-50" d="M 1313 1984 
L 1313 750 
Q 1313 350 1400 253 
Q 1519 116 1759 116 
L 1922 116 
L 1922 0 
L 106 0 
L 106 116 
L 266 116 
Q 534 116 650 291 
Q 713 388 713 750 
L 713 3488 
Q 713 3888 628 3984 
Q 506 4122 266 4122 
L 106 4122 
L 106 4238 
L 1659 4238 
Q 2228 4238 2556 4120 
Q 2884 4003 3109 3725 
Q 3334 3447 3334 3066 
Q 3334 2547 2992 2222 
Q 2650 1897 2025 1897 
Q 1872 1897 1694 1919 
Q 1516 1941 1313 1984 
z
M 1313 2163 
Q 1478 2131 1606 2115 
Q 1734 2100 1825 2100 
Q 2150 2100 2386 2351 
Q 2622 2603 2622 3003 
Q 2622 3278 2509 3514 
Q 2397 3750 2190 3867 
Q 1984 3984 1722 3984 
Q 1563 3984 1313 3925 
L 1313 2163 
z
" transform="scale(0.015625)"/>
       </defs>
       <use xlink:href="#TimesNewRomanPSMT-4d"/>
       <use xlink:href="#TimesNewRomanPSMT-42" x="88.916016"/>
       <use xlink:href="#TimesNewRomanPSMT-50" x="155.615234"/>
       <use xlink:href="#TimesNewRomanPSMT-50" x="211.230469"/>
      </g>
     </g>
    </g>
    <g id="xtick_6">
     <g id="line2d_6">
      <path d="M 283.484034 288 
L 393.704801 478.907969 
" clip-path="url(#p940ee1258d)" style="fill: none; stroke-dasharray: 2.96,1.28; stroke-dashoffset: 0; stroke: #808080; stroke-opacity: 0.5; stroke-width: 0.8"/>
     </g>
     <g id="text_6">
      <!-- IFEval -->
      <g style="fill: #333333" transform="translate(378.932301 494.876074)scale(0.16 -0.16)">
       <defs>
        <path id="TimesNewRomanPSMT-49" d="M 1975 116 
L 1975 0 
L 159 0 
L 159 116 
L 309 116 
Q 572 116 691 269 
Q 766 369 766 750 
L 766 3488 
Q 766 3809 725 3913 
Q 694 3991 597 4047 
Q 459 4122 309 4122 
L 159 4122 
L 159 4238 
L 1975 4238 
L 1975 4122 
L 1822 4122 
Q 1563 4122 1444 3969 
Q 1366 3869 1366 3488 
L 1366 750 
Q 1366 428 1406 325 
Q 1438 247 1538 191 
Q 1672 116 1822 116 
L 1975 116 
z
" transform="scale(0.015625)"/>
        <path id="TimesNewRomanPSMT-46" d="M 1309 4006 
L 1309 2341 
L 2081 2341 
Q 2347 2341 2470 2458 
Q 2594 2575 2634 2922 
L 2750 2922 
L 2750 1488 
L 2634 1488 
Q 2631 1734 2570 1850 
Q 2509 1966 2401 2023 
Q 2294 2081 2081 2081 
L 1309 2081 
L 1309 750 
Q 1309 428 1350 325 
Q 1381 247 1481 191 
Q 1619 116 1769 116 
L 1922 116 
L 1922 0 
L 103 0 
L 103 116 
L 253 116 
Q 516 116 634 269 
Q 709 369 709 750 
L 709 3488 
Q 709 3809 669 3913 
Q 638 3991 541 4047 
Q 406 4122 253 4122 
L 103 4122 
L 103 4238 
L 3256 4238 
L 3297 3306 
L 3188 3306 
Q 3106 3603 2998 3742 
Q 2891 3881 2733 3943 
Q 2575 4006 2244 4006 
L 1309 4006 
z
" transform="scale(0.015625)"/>
       </defs>
       <use xlink:href="#TimesNewRomanPSMT-49"/>
       <use xlink:href="#TimesNewRomanPSMT-46" x="33.300781"/>
       <use xlink:href="#TimesNewRomanPSMT-45" x="88.916016"/>
       <use xlink:href="#TimesNewRomanPSMT-76" x="150"/>
       <use xlink:href="#TimesNewRomanPSMT-61" x="200"/>
       <use xlink:href="#TimesNewRomanPSMT-6c" x="244.384766"/>
      </g>
     </g>
    </g>
   </g>
   <g id="matplotlib.axis_2">
    <g id="ytick_1">
     <g id="line2d_7">
      <path d="M 283.484034 288 
C 283.484034 288 283.484034 288 283.484034 288 
C 283.484034 288 283.484034 288 283.484034 288 
C 283.484034 288 283.484034 288 283.484034 288 
C 283.484034 288 283.484034 288 283.484034 288 
C 283.484034 288 283.484034 288 283.484034 288 
C 283.484034 288 283.484034 288 283.484034 288 
C 283.484034 288 283.484034 288 283.484034 288 
C 283.484034 288 283.484034 288 283.484034 288 
C 283.484034 288 283.484034 288 283.484034 288 
C 283.484034 288 283.484034 288 283.484034 288 
C 283.484034 288 283.484034 288 283.484034 288 
C 283.484034 288 283.484034 288 283.484034 288 
C 283.484034 288 283.484034 288 283.484034 288 
C 283.484034 288 283.484034 288 283.484034 288 
C 283.484034 288 283.484034 288 283.484034 288 
C 283.484034 288 283.484034 288 283.484034 288 
" clip-path="url(#p940ee1258d)" style="fill: none; stroke-dasharray: 2.96,1.28; stroke-dashoffset: 0; stroke: #808080; stroke-opacity: 0.5; stroke-width: 0.8"/>
     </g>
     <g id="text_7">
      <!-- 0 -->
      <g style="fill: #808080" transform="translate(283.484034 285.647031)scale(0.11 -0.11)">
       <use xlink:href="#TimesNewRomanPSMT-30"/>
      </g>
     </g>
    </g>
    <g id="ytick_2">
     <g id="line2d_8">
      <path d="M 327.572341 288 
C 327.572341 282.210377 326.431911 276.47705 324.216318 271.128135 
C 322.000725 265.779221 318.753057 260.918741 314.659175 256.824859 
C 310.565293 252.730977 305.704813 249.483309 300.355899 247.267716 
C 295.006984 245.052123 289.273657 243.911693 283.484034 243.911693 
C 277.694411 243.911693 271.961084 245.052123 266.61217 247.267716 
C 261.263255 249.483309 256.402775 252.730977 252.308893 256.824859 
C 248.215011 260.918741 244.967343 265.779221 242.75175 271.128135 
C 240.536157 276.47705 239.395727 282.210377 239.395727 288 
C 239.395727 293.789623 240.536157 299.52295 242.75175 304.871865 
C 244.967343 310.220779 248.215011 315.081259 252.308893 319.175141 
C 256.402775 323.269023 261.263255 326.516691 266.61217 328.732284 
C 271.961084 330.947877 277.694411 332.088307 283.484034 332.088307 
C 289.273657 332.088307 295.006984 330.947877 300.355899 328.732284 
C 305.704813 326.516691 310.565293 323.269023 314.659175 319.175141 
C 318.753057 315.081259 322.000725 310.220779 324.216318 304.871865 
C 326.431911 299.52295 327.572341 293.789623 327.572341 288 
" clip-path="url(#p940ee1258d)" style="fill: none; stroke-dasharray: 2.96,1.28; stroke-dashoffset: 0; stroke: #808080; stroke-opacity: 0.5; stroke-width: 0.8"/>
     </g>
     <g id="text_8">
      <!-- 20 -->
      <g style="fill: #808080" transform="translate(324.216318 268.775167)scale(0.11 -0.11)">
       <defs>
        <path id="TimesNewRomanPSMT-32" d="M 2934 816 
L 2638 0 
L 138 0 
L 138 116 
Q 1241 1122 1691 1759 
Q 2141 2397 2141 2925 
Q 2141 3328 1894 3587 
Q 1647 3847 1303 3847 
Q 991 3847 742 3664 
Q 494 3481 375 3128 
L 259 3128 
Q 338 3706 661 4015 
Q 984 4325 1469 4325 
Q 1984 4325 2329 3994 
Q 2675 3663 2675 3213 
Q 2675 2891 2525 2569 
Q 2294 2063 1775 1497 
Q 997 647 803 472 
L 1909 472 
Q 2247 472 2383 497 
Q 2519 522 2628 598 
Q 2738 675 2819 816 
L 2934 816 
z
" transform="scale(0.015625)"/>
       </defs>
       <use xlink:href="#TimesNewRomanPSMT-32"/>
       <use xlink:href="#TimesNewRomanPSMT-30" x="50"/>
      </g>
     </g>
    </g>
    <g id="ytick_3">
     <g id="line2d_9">
      <path d="M 371.660648 288 
C 371.660648 276.420753 369.379789 264.9541 364.948603 254.256271 
C 360.517417 243.558442 354.022079 233.837482 345.834316 225.649719 
C 337.646552 217.461955 327.925592 210.966617 317.227763 206.535431 
C 306.529934 202.104246 295.063281 199.823386 283.484034 199.823386 
C 271.904787 199.823386 260.438134 202.104246 249.740305 206.535431 
C 239.042476 210.966617 229.321517 217.461955 221.133753 225.649719 
C 212.945989 233.837482 206.450651 243.558442 202.019466 254.256271 
C 197.58828 264.9541 195.30742 276.420753 195.30742 288 
C 195.30742 299.579247 197.58828 311.0459 202.019466 321.743729 
C 206.450651 332.441558 212.945989 342.162518 221.133753 350.350281 
C 229.321517 358.538045 239.042476 365.033383 249.740305 369.464569 
C 260.438134 373.895754 271.904787 376.176614 283.484034 376.176614 
C 295.063281 376.176614 306.529934 373.895754 317.227763 369.464569 
C 327.925592 365.033383 337.646552 358.538045 345.834316 350.350281 
C 354.022079 342.162518 360.517417 332.441558 364.948603 321.743729 
C 369.379789 311.0459 371.660648 299.579247 371.660648 288 
" clip-path="url(#p940ee1258d)" style="fill: none; stroke-dasharray: 2.96,1.28; stroke-dashoffset: 0; stroke: #808080; stroke-opacity: 0.5; stroke-width: 0.8"/>
     </g>
     <g id="text_9">
      <!-- 40 -->
      <g style="fill: #808080" transform="translate(364.948603 251.903302)scale(0.11 -0.11)">
       <defs>
        <path id="TimesNewRomanPSMT-34" d="M 2978 1563 
L 2978 1119 
L 2409 1119 
L 2409 0 
L 1894 0 
L 1894 1119 
L 100 1119 
L 100 1519 
L 2066 4325 
L 2409 4325 
L 2409 1563 
L 2978 1563 
z
M 1894 1563 
L 1894 3666 
L 406 1563 
L 1894 1563 
z
" transform="scale(0.015625)"/>
       </defs>
       <use xlink:href="#TimesNewRomanPSMT-34"/>
       <use xlink:href="#TimesNewRomanPSMT-30" x="50"/>
      </g>
     </g>
    </g>
    <g id="ytick_4">
     <g id="line2d_10">
      <path d="M 415.748955 288 
C 415.748955 270.63113 412.327666 253.43115 405.680887 237.384406 
C 399.034108 221.337663 389.291102 206.756224 377.009456 194.474578 
C 364.72781 182.192932 350.146372 172.449926 334.099628 165.803147 
C 318.052884 159.156368 300.852904 155.73508 283.484034 155.73508 
C 266.115164 155.73508 248.915184 159.156368 232.86844 165.803147 
C 216.821697 172.449926 202.240258 182.192932 189.958612 194.474578 
C 177.676966 206.756224 167.93396 221.337663 161.287181 237.384406 
C 154.640402 253.43115 151.219114 270.63113 151.219114 288 
C 151.219114 305.36887 154.640402 322.56885 161.287181 338.615594 
C 167.93396 354.662337 177.676966 369.243776 189.958612 381.525422 
C 202.240258 393.807068 216.821697 403.550074 232.86844 410.196853 
C 248.915184 416.843632 266.115164 420.26492 283.484034 420.26492 
C 300.852904 420.26492 318.052884 416.843632 334.099628 410.196853 
C 350.146372 403.550074 364.72781 393.807068 377.009456 381.525422 
C 389.291102 369.243776 399.034108 354.662337 405.680887 338.615594 
C 412.327666 322.56885 415.748955 305.36887 415.748955 288 
" clip-path="url(#p940ee1258d)" style="fill: none; stroke-dasharray: 2.96,1.28; stroke-dashoffset: 0; stroke: #808080; stroke-opacity: 0.5; stroke-width: 0.8"/>
     </g>
     <g id="text_10">
      <!-- 60 -->
      <g style="fill: #808080" transform="translate(405.680887 235.031438)scale(0.11 -0.11)">
       <defs>
        <path id="TimesNewRomanPSMT-36" d="M 2869 4325 
L 2869 4209 
Q 2456 4169 2195 4045 
Q 1934 3922 1679 3669 
Q 1425 3416 1258 3105 
Q 1091 2794 978 2366 
Q 1428 2675 1881 2675 
Q 2316 2675 2634 2325 
Q 2953 1975 2953 1425 
Q 2953 894 2631 456 
Q 2244 -75 1606 -75 
Q 1172 -75 869 213 
Q 275 772 275 1663 
Q 275 2231 503 2743 
Q 731 3256 1154 3653 
Q 1578 4050 1965 4187 
Q 2353 4325 2688 4325 
L 2869 4325 
z
M 925 2138 
Q 869 1716 869 1456 
Q 869 1156 980 804 
Q 1091 453 1309 247 
Q 1469 100 1697 100 
Q 1969 100 2183 356 
Q 2397 613 2397 1088 
Q 2397 1622 2184 2012 
Q 1972 2403 1581 2403 
Q 1463 2403 1327 2353 
Q 1191 2303 925 2138 
z
" transform="scale(0.015625)"/>
       </defs>
       <use xlink:href="#TimesNewRomanPSMT-36"/>
       <use xlink:href="#TimesNewRomanPSMT-30" x="50"/>
      </g>
     </g>
    </g>
    <g id="ytick_5">
     <g id="line2d_11">
      <path d="M 459.837261 288 
C 459.837261 264.841506 455.275543 241.9082 446.413171 220.512542 
C 437.550799 199.116883 424.560125 179.674965 408.184597 163.299437 
C 391.809069 146.923909 372.367151 133.933235 350.971492 125.070863 
C 329.575834 116.208491 306.642528 111.646773 283.484034 111.646773 
C 260.32554 111.646773 237.392234 116.208491 215.996576 125.070863 
C 194.600918 133.933235 175.158999 146.923909 158.783471 163.299437 
C 142.407943 179.674965 129.417269 199.116883 120.554897 220.512542 
C 111.692525 241.9082 107.130807 264.841506 107.130807 288 
C 107.130807 311.158494 111.692525 334.0918 120.554897 355.487458 
C 129.417269 376.883117 142.407943 396.325035 158.783471 412.700563 
C 175.158999 429.076091 194.600918 442.066765 215.996576 450.929137 
C 237.392234 459.791509 260.32554 464.353227 283.484034 464.353227 
C 306.642528 464.353227 329.575834 459.791509 350.971492 450.929137 
C 372.367151 442.066765 391.809069 429.076091 408.184597 412.700563 
C 424.560125 396.325035 437.550799 376.883117 446.413171 355.487458 
C 455.275543 334.0918 459.837261 311.158494 459.837261 288 
" clip-path="url(#p940ee1258d)" style="fill: none; stroke-dasharray: 2.96,1.28; stroke-dashoffset: 0; stroke: #808080; stroke-opacity: 0.5; stroke-width: 0.8"/>
     </g>
     <g id="text_11">
      <!-- 80 -->
      <g style="fill: #808080" transform="translate(446.413171 218.159573)scale(0.11 -0.11)">
       <use xlink:href="#TimesNewRomanPSMT-38"/>
       <use xlink:href="#TimesNewRomanPSMT-30" x="50"/>
      </g>
     </g>
    </g>
    <g id="ytick_6">
     <g id="line2d_12">
      <path d="M 503.925568 288 
C 503.925568 259.051883 498.22342 230.38525 487.145456 203.640677 
C 476.067491 176.896104 459.829148 152.593706 439.359738 132.124296 
C 418.890328 111.654887 394.58793 95.416543 367.843357 84.338579 
C 341.098784 73.260614 312.432151 67.558466 283.484034 67.558466 
C 254.535917 67.558466 225.869284 73.260614 199.124711 84.338579 
C 172.380138 95.416543 148.07774 111.654887 127.60833 132.124296 
C 107.138921 152.593706 90.900577 176.896104 79.822613 203.640677 
C 68.744648 230.38525 63.0425 259.051883 63.0425 288 
C 63.0425 316.948117 68.744648 345.61475 79.822613 372.359323 
C 90.900577 399.103896 107.138921 423.406294 127.60833 443.875704 
C 148.07774 464.345113 172.380138 480.583457 199.124711 491.661421 
C 225.869284 502.739386 254.535917 508.441534 283.484034 508.441534 
C 312.432151 508.441534 341.098784 502.739386 367.843357 491.661421 
C 394.58793 480.583457 418.890328 464.345113 439.359738 443.875704 
C 459.829148 423.406294 476.067491 399.103896 487.145456 372.359323 
C 498.22342 345.61475 503.925568 316.948117 503.925568 288 
" clip-path="url(#p940ee1258d)" style="fill: none; stroke-dasharray: 2.96,1.28; stroke-dashoffset: 0; stroke: #808080; stroke-opacity: 0.5; stroke-width: 0.8"/>
     </g>
     <g id="text_12">
      <!-- 100 -->
      <g style="fill: #808080" transform="translate(487.145456 201.287708)scale(0.11 -0.11)">
       <defs>
        <path id="TimesNewRomanPSMT-31" d="M 750 3822 
L 1781 4325 
L 1884 4325 
L 1884 747 
Q 1884 391 1914 303 
Q 1944 216 2037 169 
Q 2131 122 2419 116 
L 2419 0 
L 825 0 
L 825 116 
Q 1125 122 1212 167 
Q 1300 213 1334 289 
Q 1369 366 1369 747 
L 1369 3034 
Q 1369 3497 1338 3628 
Q 1316 3728 1258 3775 
Q 1200 3822 1119 3822 
Q 1003 3822 797 3725 
L 750 3822 
z
" transform="scale(0.015625)"/>
       </defs>
       <use xlink:href="#TimesNewRomanPSMT-31"/>
       <use xlink:href="#TimesNewRomanPSMT-30" x="50"/>
       <use xlink:href="#TimesNewRomanPSMT-30" x="100"/>
      </g>
     </g>
    </g>
   </g>
   <g id="line2d_13">
    <path d="M 436.6909 288 
L 372.762855 133.364545 
L 239.83661 212.400444 
L 161.138983 288 
L 218.674223 400.253886 
L 352.372013 407.31748 
L 436.6909 288 
" clip-path="url(#p940ee1258d)" style="fill: none; stroke: #00a087; stroke-opacity: 0.9; stroke-width: 1.5; stroke-linecap: square"/>
   </g>
   <g id="line2d_14">
    <path d="M 428.755005 288 
L 370.117557 137.946337 
L 249.646259 229.391254 
L 178.553864 288 
L 245.788532 353.290525 
L 349.506274 402.353873 
L 428.755005 288 
" clip-path="url(#p940ee1258d)" style="fill: none; stroke: #f39b7f; stroke-opacity: 0.9; stroke-width: 1.5; stroke-linecap: square"/>
   </g>
   <g id="line2d_15">
    <path d="M 456.75108 288 
L 384.115594 113.701025 
L 196.850511 137.946337 
L 109.996547 288 
L 204.125082 425.453737 
L 351.159585 405.217493 
L 456.75108 288 
" clip-path="url(#p940ee1258d)" style="fill: none; stroke: #4dbbd5; stroke-opacity: 0.9; stroke-width: 1.5; stroke-linecap: square"/>
   </g>
   <g id="line2d_16">
    <path d="M 466.009624 288 
L 384.225815 113.510117 
L 197.732277 139.4736 
L 91.259016 288 
L 204.565965 424.690105 
L 350.277819 403.690229 
L 466.009624 288 
" clip-path="url(#p940ee1258d)" style="fill: none; stroke: #3c5488; stroke-opacity: 0.9; stroke-width: 2.2; stroke-linecap: square"/>
   </g>
   <g id="line2d_17">
    <path d="M 464.686975 288 
L 385.658685 111.028313 
L 198.834485 141.38268 
L 96.549613 288 
L 200.708238 431.371884 
L 347.081417 398.153898 
L 464.686975 288 
" clip-path="url(#p940ee1258d)" style="fill: none; stroke: #e64b35; stroke-opacity: 0.9; stroke-width: 1.5; stroke-linecap: square"/>
   </g>
   <g id="legend_1">
    <g id="patch_5">
     <path d="M 461.988119 432.827773 
L 585.102182 432.827773 
Q 587.102182 432.827773 587.102182 430.827773 
L 587.102182 361.13246 
Q 587.102182 359.13246 585.102182 359.13246 
L 461.988119 359.13246 
Q 459.988119 359.13246 459.988119 361.13246 
L 459.988119 430.827773 
Q 459.988119 432.827773 461.988119 432.827773 
z
" style="fill: #ffffff; opacity: 0.8; stroke: #cccccc; stroke-linejoin: miter"/>
    </g>
    <g id="line2d_18">
     <path d="M 463.988119 366.63246 
L 473.988119 366.63246 
L 483.988119 366.63246 
" style="fill: none; stroke: #00a087; stroke-opacity: 0.9; stroke-width: 1.5; stroke-linecap: square"/>
    </g>
    <g id="text_13">
     <!-- Dream-7B -->
     <g transform="translate(491.988119 370.13246)scale(0.1 -0.1)">
      <defs>
       <path id="TimesNewRomanPSMT-44" d="M 109 0 
L 109 116 
L 269 116 
Q 538 116 650 288 
Q 719 391 719 750 
L 719 3488 
Q 719 3884 631 3984 
Q 509 4122 269 4122 
L 109 4122 
L 109 4238 
L 1834 4238 
Q 2784 4238 3279 4022 
Q 3775 3806 4076 3303 
Q 4378 2800 4378 2141 
Q 4378 1256 3841 663 
Q 3238 0 2003 0 
L 109 0 
z
M 1319 306 
Q 1716 219 1984 219 
Q 2709 219 3187 728 
Q 3666 1238 3666 2109 
Q 3666 2988 3187 3494 
Q 2709 4000 1959 4000 
Q 1678 4000 1319 3909 
L 1319 306 
z
" transform="scale(0.015625)"/>
       <path id="TimesNewRomanPSMT-72" d="M 1038 2947 
L 1038 2303 
Q 1397 2947 1775 2947 
Q 1947 2947 2059 2842 
Q 2172 2738 2172 2600 
Q 2172 2478 2090 2393 
Q 2009 2309 1897 2309 
Q 1788 2309 1652 2417 
Q 1516 2525 1450 2525 
Q 1394 2525 1328 2463 
Q 1188 2334 1038 2041 
L 1038 669 
Q 1038 431 1097 309 
Q 1138 225 1241 169 
Q 1344 113 1538 113 
L 1538 0 
L 72 0 
L 72 113 
Q 291 113 397 181 
Q 475 231 506 341 
Q 522 394 522 644 
L 522 1753 
Q 522 2253 501 2348 
Q 481 2444 426 2487 
Q 372 2531 291 2531 
Q 194 2531 72 2484 
L 41 2597 
L 906 2947 
L 1038 2947 
z
" transform="scale(0.015625)"/>
       <path id="TimesNewRomanPSMT-65" d="M 681 1784 
Q 678 1147 991 784 
Q 1303 422 1725 422 
Q 2006 422 2214 576 
Q 2422 731 2563 1106 
L 2659 1044 
Q 2594 616 2278 264 
Q 1963 -88 1488 -88 
Q 972 -88 605 314 
Q 238 716 238 1394 
Q 238 2128 614 2539 
Q 991 2950 1559 2950 
Q 2041 2950 2350 2633 
Q 2659 2316 2659 1784 
L 681 1784 
z
M 681 1966 
L 2006 1966 
Q 1991 2241 1941 2353 
Q 1863 2528 1708 2628 
Q 1553 2728 1384 2728 
Q 1125 2728 920 2526 
Q 716 2325 681 1966 
z
" transform="scale(0.015625)"/>
       <path id="TimesNewRomanPSMT-37" d="M 644 4238 
L 2916 4238 
L 2916 4119 
L 1503 -88 
L 1153 -88 
L 2419 3728 
L 1253 3728 
Q 900 3728 750 3644 
Q 488 3500 328 3200 
L 238 3234 
L 644 4238 
z
" transform="scale(0.015625)"/>
      </defs>
      <use xlink:href="#TimesNewRomanPSMT-44"/>
      <use xlink:href="#TimesNewRomanPSMT-72" x="72.216797"/>
      <use xlink:href="#TimesNewRomanPSMT-65" x="105.517578"/>
      <use xlink:href="#TimesNewRomanPSMT-61" x="149.902344"/>
      <use xlink:href="#TimesNewRomanPSMT-6d" x="194.287109"/>
      <use xlink:href="#TimesNewRomanPSMT-2d" x="272.070312"/>
      <use xlink:href="#TimesNewRomanPSMT-37" x="305.371094"/>
      <use xlink:href="#TimesNewRomanPSMT-42" x="355.371094"/>
     </g>
    </g>
    <g id="line2d_19">
     <path d="M 463.988119 380.771523 
L 473.988119 380.771523 
L 483.988119 380.771523 
" style="fill: none; stroke: #f39b7f; stroke-opacity: 0.9; stroke-width: 1.5; stroke-linecap: square"/>
    </g>
    <g id="text_14">
     <!-- LLaDA-8B -->
     <g transform="translate(491.988119 384.271523)scale(0.1 -0.1)">
      <defs>
       <path id="TimesNewRomanPSMT-41" d="M 2928 1419 
L 1288 1419 
L 1000 750 
Q 894 503 894 381 
Q 894 284 986 211 
Q 1078 138 1384 116 
L 1384 0 
L 50 0 
L 50 116 
Q 316 163 394 238 
Q 553 388 747 847 
L 2238 4334 
L 2347 4334 
L 3822 809 
Q 4000 384 4145 257 
Q 4291 131 4550 116 
L 4550 0 
L 2878 0 
L 2878 116 
Q 3131 128 3220 200 
Q 3309 272 3309 375 
Q 3309 513 3184 809 
L 2928 1419 
z
M 2841 1650 
L 2122 3363 
L 1384 1650 
L 2841 1650 
z
" transform="scale(0.015625)"/>
      </defs>
      <use xlink:href="#TimesNewRomanPSMT-4c"/>
      <use xlink:href="#TimesNewRomanPSMT-4c" x="61.083984"/>
      <use xlink:href="#TimesNewRomanPSMT-61" x="122.167969"/>
      <use xlink:href="#TimesNewRomanPSMT-44" x="166.552734"/>
      <use xlink:href="#TimesNewRomanPSMT-41" x="238.769531"/>
      <use xlink:href="#TimesNewRomanPSMT-2d" x="310.986328"/>
      <use xlink:href="#TimesNewRomanPSMT-38" x="344.287109"/>
      <use xlink:href="#TimesNewRomanPSMT-42" x="394.287109"/>
     </g>
    </g>
    <g id="line2d_20">
     <path d="M 463.988119 394.910585 
L 473.988119 394.910585 
L 483.988119 394.910585 
" style="fill: none; stroke: #4dbbd5; stroke-opacity: 0.9; stroke-width: 1.5; stroke-linecap: square"/>
    </g>
    <g id="text_15">
     <!-- SDAR-8B-Chat -->
     <g transform="translate(491.988119 398.410585)scale(0.1 -0.1)">
      <defs>
       <path id="TimesNewRomanPSMT-52" d="M 4325 0 
L 3194 0 
L 1759 1981 
Q 1600 1975 1500 1975 
Q 1459 1975 1412 1976 
Q 1366 1978 1316 1981 
L 1316 750 
Q 1316 350 1403 253 
Q 1522 116 1759 116 
L 1925 116 
L 1925 0 
L 109 0 
L 109 116 
L 269 116 
Q 538 116 653 291 
Q 719 388 719 750 
L 719 3488 
Q 719 3888 631 3984 
Q 509 4122 269 4122 
L 109 4122 
L 109 4238 
L 1653 4238 
Q 2328 4238 2648 4139 
Q 2969 4041 3192 3777 
Q 3416 3513 3416 3147 
Q 3416 2756 3161 2468 
Q 2906 2181 2372 2063 
L 3247 847 
Q 3547 428 3762 290 
Q 3978 153 4325 116 
L 4325 0 
z
M 1316 2178 
Q 1375 2178 1419 2176 
Q 1463 2175 1491 2175 
Q 2097 2175 2405 2437 
Q 2713 2700 2713 3106 
Q 2713 3503 2464 3751 
Q 2216 4000 1806 4000 
Q 1625 4000 1316 3941 
L 1316 2178 
z
" transform="scale(0.015625)"/>
       <path id="TimesNewRomanPSMT-43" d="M 3853 4334 
L 3950 2894 
L 3853 2894 
Q 3659 3541 3300 3825 
Q 2941 4109 2438 4109 
Q 2016 4109 1675 3895 
Q 1334 3681 1139 3212 
Q 944 2744 944 2047 
Q 944 1472 1128 1050 
Q 1313 628 1683 403 
Q 2053 178 2528 178 
Q 2941 178 3256 354 
Q 3572 531 3950 1056 
L 4047 994 
Q 3728 428 3303 165 
Q 2878 -97 2294 -97 
Q 1241 -97 663 684 
Q 231 1266 231 2053 
Q 231 2688 515 3219 
Q 800 3750 1298 4042 
Q 1797 4334 2388 4334 
Q 2847 4334 3294 4109 
Q 3425 4041 3481 4041 
Q 3566 4041 3628 4100 
Q 3709 4184 3744 4334 
L 3853 4334 
z
" transform="scale(0.015625)"/>
      </defs>
      <use xlink:href="#TimesNewRomanPSMT-53"/>
      <use xlink:href="#TimesNewRomanPSMT-44" x="55.615234"/>
      <use xlink:href="#TimesNewRomanPSMT-41" x="127.832031"/>
      <use xlink:href="#TimesNewRomanPSMT-52" x="200.048828"/>
      <use xlink:href="#TimesNewRomanPSMT-2d" x="266.748047"/>
      <use xlink:href="#TimesNewRomanPSMT-38" x="300.048828"/>
      <use xlink:href="#TimesNewRomanPSMT-42" x="350.048828"/>
      <use xlink:href="#TimesNewRomanPSMT-2d" x="416.748047"/>
      <use xlink:href="#TimesNewRomanPSMT-43" x="450.048828"/>
      <use xlink:href="#TimesNewRomanPSMT-68" x="516.748047"/>
      <use xlink:href="#TimesNewRomanPSMT-61" x="566.748047"/>
      <use xlink:href="#TimesNewRomanPSMT-74" x="611.132812"/>
     </g>
    </g>
    <g id="line2d_21">
     <path d="M 463.988119 409.049648 
L 473.988119 409.049648 
L 483.988119 409.049648 
" style="fill: none; stroke: #3c5488; stroke-opacity: 0.9; stroke-width: 2.2; stroke-linecap: square"/>
    </g>
    <g id="text_16">
     <!-- SDAR-30B-A3B-Chat -->
     <g transform="translate(491.988119 412.549648)scale(0.1 -0.1)">
      <defs>
       <path id="TimesNewRomanPSMT-33" d="M 325 3431 
Q 506 3859 782 4092 
Q 1059 4325 1472 4325 
Q 1981 4325 2253 3994 
Q 2459 3747 2459 3466 
Q 2459 3003 1878 2509 
Q 2269 2356 2469 2072 
Q 2669 1788 2669 1403 
Q 2669 853 2319 450 
Q 1863 -75 997 -75 
Q 569 -75 414 31 
Q 259 138 259 259 
Q 259 350 332 419 
Q 406 488 509 488 
Q 588 488 669 463 
Q 722 447 909 348 
Q 1097 250 1169 231 
Q 1284 197 1416 197 
Q 1734 197 1970 444 
Q 2206 691 2206 1028 
Q 2206 1275 2097 1509 
Q 2016 1684 1919 1775 
Q 1784 1900 1550 2001 
Q 1316 2103 1072 2103 
L 972 2103 
L 972 2197 
Q 1219 2228 1467 2375 
Q 1716 2522 1828 2728 
Q 1941 2934 1941 3181 
Q 1941 3503 1739 3701 
Q 1538 3900 1238 3900 
Q 753 3900 428 3381 
L 325 3431 
z
" transform="scale(0.015625)"/>
      </defs>
      <use xlink:href="#TimesNewRomanPSMT-53"/>
      <use xlink:href="#TimesNewRomanPSMT-44" x="55.615234"/>
      <use xlink:href="#TimesNewRomanPSMT-41" x="127.832031"/>
      <use xlink:href="#TimesNewRomanPSMT-52" x="200.048828"/>
      <use xlink:href="#TimesNewRomanPSMT-2d" x="266.748047"/>
      <use xlink:href="#TimesNewRomanPSMT-33" x="300.048828"/>
      <use xlink:href="#TimesNewRomanPSMT-30" x="350.048828"/>
      <use xlink:href="#TimesNewRomanPSMT-42" x="400.048828"/>
      <use xlink:href="#TimesNewRomanPSMT-2d" x="466.748047"/>
      <use xlink:href="#TimesNewRomanPSMT-41" x="500.048828"/>
      <use xlink:href="#TimesNewRomanPSMT-33" x="572.265625"/>
      <use xlink:href="#TimesNewRomanPSMT-42" x="622.265625"/>
      <use xlink:href="#TimesNewRomanPSMT-2d" x="688.964844"/>
      <use xlink:href="#TimesNewRomanPSMT-43" x="722.265625"/>
      <use xlink:href="#TimesNewRomanPSMT-68" x="788.964844"/>
      <use xlink:href="#TimesNewRomanPSMT-61" x="838.964844"/>
      <use xlink:href="#TimesNewRomanPSMT-74" x="883.349609"/>
     </g>
    </g>
    <g id="line2d_22">
     <path d="M 463.988119 423.18871 
L 473.988119 423.18871 
L 483.988119 423.18871 
" style="fill: none; stroke: #e64b35; stroke-opacity: 0.9; stroke-width: 1.5; stroke-linecap: square"/>
    </g>
    <g id="text_17">
     <!-- AR-30B-A3B-Chat -->
     <g transform="translate(491.988119 426.68871)scale(0.1 -0.1)">
      <use xlink:href="#TimesNewRomanPSMT-41"/>
      <use xlink:href="#TimesNewRomanPSMT-52" x="72.216797"/>
      <use xlink:href="#TimesNewRomanPSMT-2d" x="138.916016"/>
      <use xlink:href="#TimesNewRomanPSMT-33" x="172.216797"/>
      <use xlink:href="#TimesNewRomanPSMT-30" x="222.216797"/>
      <use xlink:href="#TimesNewRomanPSMT-42" x="272.216797"/>
      <use xlink:href="#TimesNewRomanPSMT-2d" x="338.916016"/>
      <use xlink:href="#TimesNewRomanPSMT-41" x="372.216797"/>
      <use xlink:href="#TimesNewRomanPSMT-33" x="444.433594"/>
      <use xlink:href="#TimesNewRomanPSMT-42" x="494.433594"/>
      <use xlink:href="#TimesNewRomanPSMT-2d" x="561.132812"/>
      <use xlink:href="#TimesNewRomanPSMT-43" x="594.433594"/>
      <use xlink:href="#TimesNewRomanPSMT-68" x="661.132812"/>
      <use xlink:href="#TimesNewRomanPSMT-61" x="711.132812"/>
      <use xlink:href="#TimesNewRomanPSMT-74" x="755.517578"/>
     </g>
    </g>
   </g>
  </g>
  <g id="axes_2">
   <g id="patch_6">
    <path d="M 1085.327273 288 
C 1085.327273 259.051883 1079.625125 230.38525 1068.54716 203.640677 
C 1057.469195 176.896104 1041.230852 152.593706 1020.761442 132.124296 
C 1000.292032 111.654887 975.989634 95.416543 949.245062 84.338579 
C 922.500489 73.260614 893.833856 67.558466 864.885739 67.558466 
C 835.937622 67.558466 807.270989 73.260614 780.526416 84.338579 
C 753.781843 95.416543 729.479445 111.654887 709.010035 132.124296 
C 688.540625 152.593706 672.302282 176.896104 661.224317 203.640677 
C 650.146352 230.38525 644.444205 259.051883 644.444205 288 
C 644.444205 316.948117 650.146352 345.61475 661.224317 372.359323 
C 672.302282 399.103896 688.540625 423.406294 709.010035 443.875704 
C 729.479445 464.345113 753.781843 480.583457 780.526416 491.661421 
C 807.270989 502.739386 835.937622 508.441534 864.885739 508.441534 
C 893.833856 508.441534 922.500489 502.739386 949.245062 491.661421 
C 975.989634 480.583457 1000.292032 464.345113 1020.761442 443.875704 
C 1041.230852 423.406294 1057.469195 399.103896 1068.54716 372.359323 
C 1079.625125 345.61475 1085.327273 316.948117 1085.327273 288 
M 864.885739 288 
C 864.885739 288 864.885739 288 864.885739 288 
C 864.885739 288 864.885739 288 864.885739 288 
C 864.885739 288 864.885739 288 864.885739 288 
C 864.885739 288 864.885739 288 864.885739 288 
C 864.885739 288 864.885739 288 864.885739 288 
C 864.885739 288 864.885739 288 864.885739 288 
C 864.885739 288 864.885739 288 864.885739 288 
C 864.885739 288 864.885739 288 864.885739 288 
C 864.885739 288 864.885739 288 864.885739 288 
C 864.885739 288 864.885739 288 864.885739 288 
C 864.885739 288 864.885739 288 864.885739 288 
C 864.885739 288 864.885739 288 864.885739 288 
C 864.885739 288 864.885739 288 864.885739 288 
C 864.885739 288 864.885739 288 864.885739 288 
C 864.885739 288 864.885739 288 864.885739 288 
C 864.885739 288 864.885739 288 864.885739 288 
M 1085.327273 288 
z
" style="fill: #ffffff"/>
   </g>
   <g id="patch_7">
    <path d="M 1037.49146 288 
L 931.789744 172.118863 
L 797.430629 171.164323 
L 731.518611 288 
L 821.899639 362.454108 
L 930.467095 401.590241 
z
" clip-path="url(#p172b6f1a32)" style="fill: #e64b35; opacity: 0.15; stroke: #e64b35; stroke-linejoin: miter"/>
   </g>
   <g id="patch_8">
    <path d="M 1042.561615 288 
L 933.443056 169.255244 
L 785.747228 150.928079 
L 699.334147 288 
L 803.602992 394.144831 
L 931.018199 402.544781 
z
" clip-path="url(#p172b6f1a32)" style="fill: #3c5488; opacity: 0.15; stroke: #3c5488; stroke-linejoin: miter"/>
   </g>
   <g id="matplotlib.axis_3">
    <g id="xtick_7">
     <g id="line2d_23">
      <path d="M 864.885739 288 
L 1085.327273 288 
" clip-path="url(#p172b6f1a32)" style="fill: none; stroke-dasharray: 2.96,1.28; stroke-dashoffset: 0; stroke: #808080; stroke-opacity: 0.5; stroke-width: 0.8"/>
     </g>
     <g id="text_18">
      <!-- MMLU-pro -->
      <g style="fill: #333333" transform="translate(1061.108523 291.84375)scale(0.16 -0.16)">
       <defs>
        <path id="TimesNewRomanPSMT-70" d="M -6 2578 
L 875 2934 
L 994 2934 
L 994 2266 
Q 1216 2644 1439 2795 
Q 1663 2947 1909 2947 
Q 2341 2947 2628 2609 
Q 2981 2197 2981 1534 
Q 2981 794 2556 309 
Q 2206 -88 1675 -88 
Q 1444 -88 1275 -22 
Q 1150 25 994 166 
L 994 -706 
Q 994 -1000 1030 -1079 
Q 1066 -1159 1155 -1206 
Q 1244 -1253 1478 -1253 
L 1478 -1369 
L -22 -1369 
L -22 -1253 
L 56 -1253 
Q 228 -1256 350 -1188 
Q 409 -1153 442 -1076 
Q 475 -1000 475 -688 
L 475 2019 
Q 475 2297 450 2372 
Q 425 2447 370 2484 
Q 316 2522 222 2522 
Q 147 2522 31 2478 
L -6 2578 
z
M 994 2081 
L 994 1013 
Q 994 666 1022 556 
Q 1066 375 1236 237 
Q 1406 100 1666 100 
Q 1978 100 2172 344 
Q 2425 663 2425 1241 
Q 2425 1897 2138 2250 
Q 1938 2494 1663 2494 
Q 1513 2494 1366 2419 
Q 1253 2363 994 2081 
z
" transform="scale(0.015625)"/>
        <path id="TimesNewRomanPSMT-6f" d="M 1600 2947 
Q 2250 2947 2644 2453 
Q 2978 2031 2978 1484 
Q 2978 1100 2793 706 
Q 2609 313 2286 112 
Q 1963 -88 1566 -88 
Q 919 -88 538 428 
Q 216 863 216 1403 
Q 216 1797 411 2186 
Q 606 2575 925 2761 
Q 1244 2947 1600 2947 
z
M 1503 2744 
Q 1338 2744 1170 2645 
Q 1003 2547 900 2300 
Q 797 2053 797 1666 
Q 797 1041 1045 587 
Q 1294 134 1700 134 
Q 2003 134 2200 384 
Q 2397 634 2397 1244 
Q 2397 2006 2069 2444 
Q 1847 2744 1503 2744 
z
" transform="scale(0.015625)"/>
       </defs>
       <use xlink:href="#TimesNewRomanPSMT-4d"/>
       <use xlink:href="#TimesNewRomanPSMT-4d" x="88.916016"/>
       <use xlink:href="#TimesNewRomanPSMT-4c" x="177.832031"/>
       <use xlink:href="#TimesNewRomanPSMT-55" x="238.916016"/>
       <use xlink:href="#TimesNewRomanPSMT-2d" x="311.132812"/>
       <use xlink:href="#TimesNewRomanPSMT-70" x="344.433594"/>
       <use xlink:href="#TimesNewRomanPSMT-72" x="394.433594"/>
       <use xlink:href="#TimesNewRomanPSMT-6f" x="427.734375"/>
      </g>
     </g>
    </g>
    <g id="xtick_8">
     <g id="line2d_24">
      <path d="M 864.885739 288 
L 975.106506 97.092031 
" clip-path="url(#p172b6f1a32)" style="fill: none; stroke-dasharray: 2.96,1.28; stroke-dashoffset: 0; stroke: #808080; stroke-opacity: 0.5; stroke-width: 0.8"/>
     </g>
     <g id="text_19">
      <!-- AIME2025 -->
      <g style="fill: #333333" transform="translate(945.665256 88.811426)scale(0.16 -0.16)">
       <use xlink:href="#TimesNewRomanPSMT-41"/>
       <use xlink:href="#TimesNewRomanPSMT-49" x="72.216797"/>
       <use xlink:href="#TimesNewRomanPSMT-4d" x="105.517578"/>
       <use xlink:href="#TimesNewRomanPSMT-45" x="194.433594"/>
       <use xlink:href="#TimesNewRomanPSMT-32" x="255.517578"/>
       <use xlink:href="#TimesNewRomanPSMT-30" x="305.517578"/>
       <use xlink:href="#TimesNewRomanPSMT-32" x="355.517578"/>
       <use xlink:href="#TimesNewRomanPSMT-35" x="405.517578"/>
      </g>
     </g>
    </g>
    <g id="xtick_9">
     <g id="line2d_25">
      <path d="M 864.885739 288 
L 754.664972 97.092031 
" clip-path="url(#p172b6f1a32)" style="fill: none; stroke-dasharray: 2.96,1.28; stroke-dashoffset: 0; stroke: #808080; stroke-opacity: 0.5; stroke-width: 0.8"/>
     </g>
     <g id="text_20">
      <!-- GPQA-diamond -->
      <g style="fill: #333333" transform="translate(695.223722 88.811426)scale(0.16 -0.16)">
       <defs>
        <path id="TimesNewRomanPSMT-51" d="M 2819 -47 
Q 3138 -597 3508 -856 
Q 3878 -1116 4350 -1153 
L 4350 -1253 
Q 3919 -1238 3428 -1080 
Q 2938 -922 2498 -642 
Q 2059 -363 1741 -47 
Q 1291 134 1028 338 
Q 647 641 436 1083 
Q 225 1525 225 2128 
Q 225 3078 840 3706 
Q 1456 4334 2331 4334 
Q 3163 4334 3770 3704 
Q 4378 3075 4378 2116 
Q 4378 1338 3945 750 
Q 3513 163 2819 -47 
z
M 2294 4094 
Q 1725 4094 1378 3688 
Q 941 3178 941 2128 
Q 941 1100 1384 544 
Q 1728 116 2294 116 
Q 2881 116 3241 544 
Q 3663 1050 3663 2038 
Q 3663 2797 3431 3316 
Q 3253 3716 2958 3905 
Q 2663 4094 2294 4094 
z
" transform="scale(0.015625)"/>
        <path id="TimesNewRomanPSMT-64" d="M 2222 322 
Q 2013 103 1813 7 
Q 1613 -88 1381 -88 
Q 913 -88 563 304 
Q 213 697 213 1313 
Q 213 1928 600 2439 
Q 988 2950 1597 2950 
Q 1975 2950 2222 2709 
L 2222 3238 
Q 2222 3728 2198 3840 
Q 2175 3953 2125 3993 
Q 2075 4034 2000 4034 
Q 1919 4034 1784 3984 
L 1744 4094 
L 2597 4444 
L 2738 4444 
L 2738 1134 
Q 2738 631 2761 520 
Q 2784 409 2836 365 
Q 2888 322 2956 322 
Q 3041 322 3181 375 
L 3216 266 
L 2366 -88 
L 2222 -88 
L 2222 322 
z
M 2222 541 
L 2222 2016 
Q 2203 2228 2109 2403 
Q 2016 2578 1861 2667 
Q 1706 2756 1559 2756 
Q 1284 2756 1069 2509 
Q 784 2184 784 1559 
Q 784 928 1059 592 
Q 1334 256 1672 256 
Q 1956 256 2222 541 
z
" transform="scale(0.015625)"/>
        <path id="TimesNewRomanPSMT-69" d="M 928 4444 
Q 1059 4444 1151 4351 
Q 1244 4259 1244 4128 
Q 1244 3997 1151 3903 
Q 1059 3809 928 3809 
Q 797 3809 703 3903 
Q 609 3997 609 4128 
Q 609 4259 701 4351 
Q 794 4444 928 4444 
z
M 1188 2947 
L 1188 647 
Q 1188 378 1227 289 
Q 1266 200 1342 156 
Q 1419 113 1622 113 
L 1622 0 
L 231 0 
L 231 113 
Q 441 113 512 153 
Q 584 194 626 287 
Q 669 381 669 647 
L 669 1750 
Q 669 2216 641 2353 
Q 619 2453 572 2492 
Q 525 2531 444 2531 
Q 356 2531 231 2484 
L 188 2597 
L 1050 2947 
L 1188 2947 
z
" transform="scale(0.015625)"/>
       </defs>
       <use xlink:href="#TimesNewRomanPSMT-47"/>
       <use xlink:href="#TimesNewRomanPSMT-50" x="72.216797"/>
       <use xlink:href="#TimesNewRomanPSMT-51" x="127.832031"/>
       <use xlink:href="#TimesNewRomanPSMT-41" x="200.048828"/>
       <use xlink:href="#TimesNewRomanPSMT-2d" x="272.265625"/>
       <use xlink:href="#TimesNewRomanPSMT-64" x="305.566406"/>
       <use xlink:href="#TimesNewRomanPSMT-69" x="355.566406"/>
       <use xlink:href="#TimesNewRomanPSMT-61" x="383.349609"/>
       <use xlink:href="#TimesNewRomanPSMT-6d" x="427.734375"/>
       <use xlink:href="#TimesNewRomanPSMT-6f" x="505.517578"/>
       <use xlink:href="#TimesNewRomanPSMT-6e" x="555.517578"/>
       <use xlink:href="#TimesNewRomanPSMT-64" x="605.517578"/>
      </g>
     </g>
    </g>
    <g id="xtick_10">
     <g id="line2d_26">
      <path d="M 864.885739 288 
L 644.444205 288 
" clip-path="url(#p172b6f1a32)" style="fill: none; stroke-dasharray: 2.96,1.28; stroke-dashoffset: 0; stroke: #808080; stroke-opacity: 0.5; stroke-width: 0.8"/>
     </g>
     <g id="text_21">
      <!-- ChemBench -->
      <g style="fill: #333333" transform="translate(590.895455 291.84375)scale(0.16 -0.16)">
       <defs>
        <path id="TimesNewRomanPSMT-63" d="M 2631 1088 
Q 2516 522 2178 217 
Q 1841 -88 1431 -88 
Q 944 -88 581 321 
Q 219 731 219 1428 
Q 219 2103 620 2525 
Q 1022 2947 1584 2947 
Q 2006 2947 2278 2723 
Q 2550 2500 2550 2259 
Q 2550 2141 2473 2067 
Q 2397 1994 2259 1994 
Q 2075 1994 1981 2113 
Q 1928 2178 1911 2362 
Q 1894 2547 1784 2644 
Q 1675 2738 1481 2738 
Q 1169 2738 978 2506 
Q 725 2200 725 1697 
Q 725 1184 976 792 
Q 1228 400 1656 400 
Q 1963 400 2206 609 
Q 2378 753 2541 1131 
L 2631 1088 
z
" transform="scale(0.015625)"/>
       </defs>
       <use xlink:href="#TimesNewRomanPSMT-43"/>
       <use xlink:href="#TimesNewRomanPSMT-68" x="66.699219"/>
       <use xlink:href="#TimesNewRomanPSMT-65" x="116.699219"/>
       <use xlink:href="#TimesNewRomanPSMT-6d" x="161.083984"/>
       <use xlink:href="#TimesNewRomanPSMT-42" x="238.867188"/>
       <use xlink:href="#TimesNewRomanPSMT-65" x="305.566406"/>
       <use xlink:href="#TimesNewRomanPSMT-6e" x="349.951172"/>
       <use xlink:href="#TimesNewRomanPSMT-63" x="399.951172"/>
       <use xlink:href="#TimesNewRomanPSMT-68" x="444.335938"/>
      </g>
     </g>
    </g>
    <g id="xtick_11">
     <g id="line2d_27">
      <path d="M 864.885739 288 
L 754.664972 478.907969 
" clip-path="url(#p172b6f1a32)" style="fill: none; stroke-dasharray: 2.96,1.28; stroke-dashoffset: 0; stroke: #808080; stroke-opacity: 0.5; stroke-width: 0.8"/>
     </g>
     <g id="text_22">
      <!-- PHYSICS -->
      <g style="fill: #333333" transform="translate(714.763722 494.876074)scale(0.16 -0.16)">
       <defs>
        <path id="TimesNewRomanPSMT-59" d="M 3050 4238 
L 4528 4238 
L 4528 4122 
L 4447 4122 
Q 4366 4122 4209 4050 
Q 4053 3978 3925 3843 
Q 3797 3709 3609 3406 
L 2588 1797 
L 2588 734 
Q 2588 344 2675 247 
Q 2794 116 3050 116 
L 3188 116 
L 3188 0 
L 1388 0 
L 1388 116 
L 1538 116 
Q 1806 116 1919 278 
Q 1988 378 1988 734 
L 1988 1738 
L 825 3513 
Q 619 3825 545 3903 
Q 472 3981 241 4091 
Q 178 4122 59 4122 
L 59 4238 
L 1872 4238 
L 1872 4122 
L 1778 4122 
Q 1631 4122 1507 4053 
Q 1384 3984 1384 3847 
Q 1384 3734 1575 3441 
L 2459 2075 
L 3291 3381 
Q 3478 3675 3478 3819 
Q 3478 3906 3433 3975 
Q 3388 4044 3303 4083 
Q 3219 4122 3050 4122 
L 3050 4238 
z
" transform="scale(0.015625)"/>
       </defs>
       <use xlink:href="#TimesNewRomanPSMT-50"/>
       <use xlink:href="#TimesNewRomanPSMT-48" x="55.615234"/>
       <use xlink:href="#TimesNewRomanPSMT-59" x="127.832031"/>
       <use xlink:href="#TimesNewRomanPSMT-53" x="200.048828"/>
       <use xlink:href="#TimesNewRomanPSMT-49" x="255.664062"/>
       <use xlink:href="#TimesNewRomanPSMT-43" x="288.964844"/>
       <use xlink:href="#TimesNewRomanPSMT-53" x="355.664062"/>
      </g>
     </g>
    </g>
    <g id="xtick_12">
     <g id="line2d_28">
      <path d="M 864.885739 288 
L 975.106506 478.907969 
" clip-path="url(#p172b6f1a32)" style="fill: none; stroke-dasharray: 2.96,1.28; stroke-dashoffset: 0; stroke: #808080; stroke-opacity: 0.5; stroke-width: 0.8"/>
     </g>
     <g id="text_23">
      <!-- ProteinLMBench -->
      <g style="fill: #333333" transform="translate(926.559006 494.876074)scale(0.16 -0.16)">
       <use xlink:href="#TimesNewRomanPSMT-50"/>
       <use xlink:href="#TimesNewRomanPSMT-72" x="55.615234"/>
       <use xlink:href="#TimesNewRomanPSMT-6f" x="88.916016"/>
       <use xlink:href="#TimesNewRomanPSMT-74" x="138.916016"/>
       <use xlink:href="#TimesNewRomanPSMT-65" x="166.699219"/>
       <use xlink:href="#TimesNewRomanPSMT-69" x="211.083984"/>
       <use xlink:href="#TimesNewRomanPSMT-6e" x="238.867188"/>
       <use xlink:href="#TimesNewRomanPSMT-4c" x="288.867188"/>
       <use xlink:href="#TimesNewRomanPSMT-4d" x="349.951172"/>
       <use xlink:href="#TimesNewRomanPSMT-42" x="438.867188"/>
       <use xlink:href="#TimesNewRomanPSMT-65" x="505.566406"/>
       <use xlink:href="#TimesNewRomanPSMT-6e" x="549.951172"/>
       <use xlink:href="#TimesNewRomanPSMT-63" x="599.951172"/>
       <use xlink:href="#TimesNewRomanPSMT-68" x="644.335938"/>
      </g>
     </g>
    </g>
   </g>
   <g id="matplotlib.axis_4">
    <g id="ytick_7">
     <g id="line2d_29">
      <path d="M 864.885739 288 
C 864.885739 288 864.885739 288 864.885739 288 
C 864.885739 288 864.885739 288 864.885739 288 
C 864.885739 288 864.885739 288 864.885739 288 
C 864.885739 288 864.885739 288 864.885739 288 
C 864.885739 288 864.885739 288 864.885739 288 
C 864.885739 288 864.885739 288 864.885739 288 
C 864.885739 288 864.885739 288 864.885739 288 
C 864.885739 288 864.885739 288 864.885739 288 
C 864.885739 288 864.885739 288 864.885739 288 
C 864.885739 288 864.885739 288 864.885739 288 
C 864.885739 288 864.885739 288 864.885739 288 
C 864.885739 288 864.885739 288 864.885739 288 
C 864.885739 288 864.885739 288 864.885739 288 
C 864.885739 288 864.885739 288 864.885739 288 
C 864.885739 288 864.885739 288 864.885739 288 
C 864.885739 288 864.885739 288 864.885739 288 
" clip-path="url(#p172b6f1a32)" style="fill: none; stroke-dasharray: 2.96,1.28; stroke-dashoffset: 0; stroke: #808080; stroke-opacity: 0.5; stroke-width: 0.8"/>
     </g>
     <g id="text_24">
      <!-- 0 -->
      <g style="fill: #808080" transform="translate(864.885739 285.647031)scale(0.11 -0.11)">
       <use xlink:href="#TimesNewRomanPSMT-30"/>
      </g>
     </g>
    </g>
    <g id="ytick_8">
     <g id="line2d_30">
      <path d="M 908.974045 288 
C 908.974045 282.210377 907.833616 276.47705 905.618023 271.128135 
C 903.40243 265.779221 900.154761 260.918741 896.060879 256.824859 
C 891.966997 252.730977 887.106518 249.483309 881.757603 247.267716 
C 876.408689 245.052123 870.675362 243.911693 864.885739 243.911693 
C 859.096115 243.911693 853.362789 245.052123 848.013874 247.267716 
C 842.664959 249.483309 837.80448 252.730977 833.710598 256.824859 
C 829.616716 260.918741 826.369047 265.779221 824.153454 271.128135 
C 821.937861 276.47705 820.797432 282.210377 820.797432 288 
C 820.797432 293.789623 821.937861 299.52295 824.153454 304.871865 
C 826.369047 310.220779 829.616716 315.081259 833.710598 319.175141 
C 837.80448 323.269023 842.664959 326.516691 848.013874 328.732284 
C 853.362789 330.947877 859.096115 332.088307 864.885739 332.088307 
C 870.675362 332.088307 876.408689 330.947877 881.757603 328.732284 
C 887.106518 326.516691 891.966997 323.269023 896.060879 319.175141 
C 900.154761 315.081259 903.40243 310.220779 905.618023 304.871865 
C 907.833616 299.52295 908.974045 293.789623 908.974045 288 
" clip-path="url(#p172b6f1a32)" style="fill: none; stroke-dasharray: 2.96,1.28; stroke-dashoffset: 0; stroke: #808080; stroke-opacity: 0.5; stroke-width: 0.8"/>
     </g>
     <g id="text_25">
      <!-- 20 -->
      <g style="fill: #808080" transform="translate(905.618023 268.775167)scale(0.11 -0.11)">
       <use xlink:href="#TimesNewRomanPSMT-32"/>
       <use xlink:href="#TimesNewRomanPSMT-30" x="50"/>
      </g>
     </g>
    </g>
    <g id="ytick_9">
     <g id="line2d_31">
      <path d="M 953.062352 288 
C 953.062352 276.420753 950.781493 264.9541 946.350307 254.256271 
C 941.919121 243.558442 935.423784 233.837482 927.23602 225.649719 
C 919.048256 217.461955 909.327297 210.966617 898.629468 206.535431 
C 887.931639 202.104246 876.464985 199.823386 864.885739 199.823386 
C 853.306492 199.823386 841.839839 202.104246 831.142009 206.535431 
C 820.44418 210.966617 810.723221 217.461955 802.535457 225.649719 
C 794.347693 233.837482 787.852356 243.558442 783.42117 254.256271 
C 778.989984 264.9541 776.709125 276.420753 776.709125 288 
C 776.709125 299.579247 778.989984 311.0459 783.42117 321.743729 
C 787.852356 332.441558 794.347693 342.162518 802.535457 350.350281 
C 810.723221 358.538045 820.44418 365.033383 831.142009 369.464569 
C 841.839839 373.895754 853.306492 376.176614 864.885739 376.176614 
C 876.464985 376.176614 887.931639 373.895754 898.629468 369.464569 
C 909.327297 365.033383 919.048256 358.538045 927.23602 350.350281 
C 935.423784 342.162518 941.919121 332.441558 946.350307 321.743729 
C 950.781493 311.0459 953.062352 299.579247 953.062352 288 
" clip-path="url(#p172b6f1a32)" style="fill: none; stroke-dasharray: 2.96,1.28; stroke-dashoffset: 0; stroke: #808080; stroke-opacity: 0.5; stroke-width: 0.8"/>
     </g>
     <g id="text_26">
      <!-- 40 -->
      <g style="fill: #808080" transform="translate(946.350307 251.903302)scale(0.11 -0.11)">
       <use xlink:href="#TimesNewRomanPSMT-34"/>
       <use xlink:href="#TimesNewRomanPSMT-30" x="50"/>
      </g>
     </g>
    </g>
    <g id="ytick_10">
     <g id="line2d_32">
      <path d="M 997.150659 288 
C 997.150659 270.63113 993.72937 253.43115 987.082592 237.384406 
C 980.435813 221.337663 970.692807 206.756224 958.411161 194.474578 
C 946.129515 182.192932 931.548076 172.449926 915.501332 165.803147 
C 899.454589 159.156368 882.254609 155.73508 864.885739 155.73508 
C 847.516868 155.73508 830.316889 159.156368 814.270145 165.803147 
C 798.223401 172.449926 783.641962 182.192932 771.360316 194.474578 
C 759.078671 206.756224 749.335665 221.337663 742.688886 237.384406 
C 736.042107 253.43115 732.620818 270.63113 732.620818 288 
C 732.620818 305.36887 736.042107 322.56885 742.688886 338.615594 
C 749.335665 354.662337 759.078671 369.243776 771.360316 381.525422 
C 783.641962 393.807068 798.223401 403.550074 814.270145 410.196853 
C 830.316889 416.843632 847.516868 420.26492 864.885739 420.26492 
C 882.254609 420.26492 899.454589 416.843632 915.501332 410.196853 
C 931.548076 403.550074 946.129515 393.807068 958.411161 381.525422 
C 970.692807 369.243776 980.435813 354.662337 987.082592 338.615594 
C 993.72937 322.56885 997.150659 305.36887 997.150659 288 
" clip-path="url(#p172b6f1a32)" style="fill: none; stroke-dasharray: 2.96,1.28; stroke-dashoffset: 0; stroke: #808080; stroke-opacity: 0.5; stroke-width: 0.8"/>
     </g>
     <g id="text_27">
      <!-- 60 -->
      <g style="fill: #808080" transform="translate(987.082592 235.031438)scale(0.11 -0.11)">
       <use xlink:href="#TimesNewRomanPSMT-36"/>
       <use xlink:href="#TimesNewRomanPSMT-30" x="50"/>
      </g>
     </g>
    </g>
    <g id="ytick_11">
     <g id="line2d_33">
      <path d="M 1041.238966 288 
C 1041.238966 264.841506 1036.677248 241.9082 1027.814876 220.512542 
C 1018.952504 199.116883 1005.961829 179.674965 989.586302 163.299437 
C 973.210774 146.923909 953.768855 133.933235 932.373197 125.070863 
C 910.977539 116.208491 888.044232 111.646773 864.885739 111.646773 
C 841.727245 111.646773 818.793939 116.208491 797.39828 125.070863 
C 776.002622 133.933235 756.560704 146.923909 740.185176 163.299437 
C 723.809648 179.674965 710.818973 199.116883 701.956601 220.512542 
C 693.09423 241.9082 688.532511 264.841506 688.532511 288 
C 688.532511 311.158494 693.09423 334.0918 701.956601 355.487458 
C 710.818973 376.883117 723.809648 396.325035 740.185176 412.700563 
C 756.560704 429.076091 776.002622 442.066765 797.39828 450.929137 
C 818.793939 459.791509 841.727245 464.353227 864.885739 464.353227 
C 888.044232 464.353227 910.977539 459.791509 932.373197 450.929137 
C 953.768855 442.066765 973.210774 429.076091 989.586302 412.700563 
C 1005.961829 396.325035 1018.952504 376.883117 1027.814876 355.487458 
C 1036.677248 334.0918 1041.238966 311.158494 1041.238966 288 
" clip-path="url(#p172b6f1a32)" style="fill: none; stroke-dasharray: 2.96,1.28; stroke-dashoffset: 0; stroke: #808080; stroke-opacity: 0.5; stroke-width: 0.8"/>
     </g>
     <g id="text_28">
      <!-- 80 -->
      <g style="fill: #808080" transform="translate(1027.814876 218.159573)scale(0.11 -0.11)">
       <use xlink:href="#TimesNewRomanPSMT-38"/>
       <use xlink:href="#TimesNewRomanPSMT-30" x="50"/>
      </g>
     </g>
    </g>
    <g id="ytick_12">
     <g id="line2d_34">
      <path d="M 1085.327273 288 
C 1085.327273 259.051883 1079.625125 230.38525 1068.54716 203.640677 
C 1057.469195 176.896104 1041.230852 152.593706 1020.761442 132.124296 
C 1000.292032 111.654887 975.989634 95.416543 949.245062 84.338579 
C 922.500489 73.260614 893.833856 67.558466 864.885739 67.558466 
C 835.937622 67.558466 807.270989 73.260614 780.526416 84.338579 
C 753.781843 95.416543 729.479445 111.654887 709.010035 132.124296 
C 688.540625 152.593706 672.302282 176.896104 661.224317 203.640677 
C 650.146352 230.38525 644.444205 259.051883 644.444205 288 
C 644.444205 316.948117 650.146352 345.61475 661.224317 372.359323 
C 672.302282 399.103896 688.540625 423.406294 709.010035 443.875704 
C 729.479445 464.345113 753.781843 480.583457 780.526416 491.661421 
C 807.270989 502.739386 835.937622 508.441534 864.885739 508.441534 
C 893.833856 508.441534 922.500489 502.739386 949.245062 491.661421 
C 975.989634 480.583457 1000.292032 464.345113 1020.761442 443.875704 
C 1041.230852 423.406294 1057.469195 399.103896 1068.54716 372.359323 
C 1079.625125 345.61475 1085.327273 316.948117 1085.327273 288 
" clip-path="url(#p172b6f1a32)" style="fill: none; stroke-dasharray: 2.96,1.28; stroke-dashoffset: 0; stroke: #808080; stroke-opacity: 0.5; stroke-width: 0.8"/>
     </g>
     <g id="text_29">
      <!-- 100 -->
      <g style="fill: #808080" transform="translate(1068.54716 201.287708)scale(0.11 -0.11)">
       <use xlink:href="#TimesNewRomanPSMT-31"/>
       <use xlink:href="#TimesNewRomanPSMT-30" x="50"/>
       <use xlink:href="#TimesNewRomanPSMT-30" x="100"/>
      </g>
     </g>
    </g>
   </g>
   <g id="line2d_35">
    <path d="M 1037.49146 288 
L 931.789744 172.118863 
L 797.430629 171.164323 
L 731.518611 288 
L 821.899639 362.454108 
L 930.467095 401.590241 
L 1037.49146 288 
" clip-path="url(#p172b6f1a32)" style="fill: none; stroke: #e64b35; stroke-opacity: 0.8; stroke-width: 1.5; stroke-linecap: square"/>
   </g>
   <g id="line2d_36">
    <path d="M 1042.561615 288 
L 933.443056 169.255244 
L 785.747228 150.928079 
L 699.334147 288 
L 803.602992 394.144831 
L 931.018199 402.544781 
L 1042.561615 288 
" clip-path="url(#p172b6f1a32)" style="fill: none; stroke: #3c5488; stroke-opacity: 0.8; stroke-width: 2.5; stroke-linecap: square"/>
   </g>
   <g id="line2d_37">
    <path d="M 1048.95442 288 
L 959.675598 123.819147 
L 779.685086 140.42814 
L 681.037499 288 
L 816.388601 371.999506 
L 934.435043 408.462928 
L 1048.95442 288 
" clip-path="url(#p172b6f1a32)" style="fill: none; stroke: #4dbbd5; stroke-opacity: 0.8; stroke-width: 1.5; stroke-linecap: square"/>
   </g>
   <g id="line2d_38">
    <path d="M 1023.824085 288 
L 876.899802 267.191031 
L 810.877563 194.455095 
L 729.093754 288 
L 847.581078 317.972551 
L 932.120407 404.453861 
L 1023.824085 288 
" clip-path="url(#p172b6f1a32)" style="fill: none; stroke: #00a087; stroke-opacity: 0.8; stroke-width: 1.5; stroke-linecap: square"/>
   </g>
   <g id="line2d_39">
    <path d="M 1052.261043 288 
L 962.872001 118.282816 
L 773.07184 128.973662 
L 685.005447 288 
L 812.089991 379.444917 
L 939.505198 417.244695 
L 1052.261043 288 
" clip-path="url(#p172b6f1a32)" style="fill: none; stroke: #f39b7f; stroke-opacity: 0.8; stroke-width: 1.5; stroke-linecap: square"/>
   </g>
   <g id="legend_2">
    <g id="patch_9">
     <path d="M 1016.640983 432.827773 
L 1144.459733 432.827773 
Q 1146.459733 432.827773 1146.459733 430.827773 
L 1146.459733 361.13246 
Q 1146.459733 359.13246 1144.459733 359.13246 
L 1016.640983 359.13246 
Q 1014.640983 359.13246 1014.640983 361.13246 
L 1014.640983 430.827773 
Q 1014.640983 432.827773 1016.640983 432.827773 
z
" style="fill: #ffffff; opacity: 0.8; stroke: #cccccc; stroke-linejoin: miter"/>
    </g>
    <g id="line2d_40">
     <path d="M 1018.640983 366.63246 
L 1028.640983 366.63246 
L 1038.640983 366.63246 
" style="fill: none; stroke: #e64b35; stroke-opacity: 0.8; stroke-width: 1.5; stroke-linecap: square"/>
    </g>
    <g id="text_30">
     <!-- AR-30B-A3B-Sci -->
     <g transform="translate(1046.640983 370.13246)scale(0.1 -0.1)">
      <use xlink:href="#TimesNewRomanPSMT-41"/>
      <use xlink:href="#TimesNewRomanPSMT-52" x="72.216797"/>
      <use xlink:href="#TimesNewRomanPSMT-2d" x="138.916016"/>
      <use xlink:href="#TimesNewRomanPSMT-33" x="172.216797"/>
      <use xlink:href="#TimesNewRomanPSMT-30" x="222.216797"/>
      <use xlink:href="#TimesNewRomanPSMT-42" x="272.216797"/>
      <use xlink:href="#TimesNewRomanPSMT-2d" x="338.916016"/>
      <use xlink:href="#TimesNewRomanPSMT-41" x="372.216797"/>
      <use xlink:href="#TimesNewRomanPSMT-33" x="444.433594"/>
      <use xlink:href="#TimesNewRomanPSMT-42" x="494.433594"/>
      <use xlink:href="#TimesNewRomanPSMT-2d" x="561.132812"/>
      <use xlink:href="#TimesNewRomanPSMT-53" x="594.433594"/>
      <use xlink:href="#TimesNewRomanPSMT-63" x="650.048828"/>
      <use xlink:href="#TimesNewRomanPSMT-69" x="694.433594"/>
     </g>
    </g>
    <g id="line2d_41">
     <path d="M 1018.640983 380.771523 
L 1028.640983 380.771523 
L 1038.640983 380.771523 
" style="fill: none; stroke: #3c5488; stroke-opacity: 0.8; stroke-width: 2.5; stroke-linecap: square"/>
    </g>
    <g id="text_31">
     <!-- SDAR-30B-A3B-Sci -->
     <g transform="translate(1046.640983 384.271523)scale(0.1 -0.1)">
      <use xlink:href="#TimesNewRomanPSMT-53"/>
      <use xlink:href="#TimesNewRomanPSMT-44" x="55.615234"/>
      <use xlink:href="#TimesNewRomanPSMT-41" x="127.832031"/>
      <use xlink:href="#TimesNewRomanPSMT-52" x="200.048828"/>
      <use xlink:href="#TimesNewRomanPSMT-2d" x="266.748047"/>
      <use xlink:href="#TimesNewRomanPSMT-33" x="300.048828"/>
      <use xlink:href="#TimesNewRomanPSMT-30" x="350.048828"/>
      <use xlink:href="#TimesNewRomanPSMT-42" x="400.048828"/>
      <use xlink:href="#TimesNewRomanPSMT-2d" x="466.748047"/>
      <use xlink:href="#TimesNewRomanPSMT-41" x="500.048828"/>
      <use xlink:href="#TimesNewRomanPSMT-33" x="572.265625"/>
      <use xlink:href="#TimesNewRomanPSMT-42" x="622.265625"/>
      <use xlink:href="#TimesNewRomanPSMT-2d" x="688.964844"/>
      <use xlink:href="#TimesNewRomanPSMT-53" x="722.265625"/>
      <use xlink:href="#TimesNewRomanPSMT-63" x="777.880859"/>
      <use xlink:href="#TimesNewRomanPSMT-69" x="822.265625"/>
     </g>
    </g>
    <g id="line2d_42">
     <path d="M 1018.640983 394.910585 
L 1028.640983 394.910585 
L 1038.640983 394.910585 
" style="fill: none; stroke: #4dbbd5; stroke-opacity: 0.8; stroke-width: 1.5; stroke-linecap: square"/>
    </g>
    <g id="text_32">
     <!-- Intern-S1 (235B-A22B) -->
     <g transform="translate(1046.640983 398.410585)scale(0.1 -0.1)">
      <defs>
       <path id="TimesNewRomanPSMT-20" transform="scale(0.015625)"/>
       <path id="TimesNewRomanPSMT-28" d="M 1988 -1253 
L 1988 -1369 
Q 1516 -1131 1200 -813 
Q 750 -359 506 256 
Q 263 872 263 1534 
Q 263 2503 741 3301 
Q 1219 4100 1988 4444 
L 1988 4313 
Q 1603 4100 1356 3731 
Q 1109 3363 987 2797 
Q 866 2231 866 1616 
Q 866 947 969 400 
Q 1050 -31 1165 -292 
Q 1281 -553 1476 -793 
Q 1672 -1034 1988 -1253 
z
" transform="scale(0.015625)"/>
       <path id="TimesNewRomanPSMT-29" d="M 144 4313 
L 144 4444 
Q 619 4209 934 3891 
Q 1381 3434 1625 2820 
Q 1869 2206 1869 1541 
Q 1869 572 1392 -226 
Q 916 -1025 144 -1369 
L 144 -1253 
Q 528 -1038 776 -670 
Q 1025 -303 1145 264 
Q 1266 831 1266 1447 
Q 1266 2113 1163 2663 
Q 1084 3094 967 3353 
Q 850 3613 656 3853 
Q 463 4094 144 4313 
z
" transform="scale(0.015625)"/>
      </defs>
      <use xlink:href="#TimesNewRomanPSMT-49"/>
      <use xlink:href="#TimesNewRomanPSMT-6e" x="33.300781"/>
      <use xlink:href="#TimesNewRomanPSMT-74" x="83.300781"/>
      <use xlink:href="#TimesNewRomanPSMT-65" x="111.083984"/>
      <use xlink:href="#TimesNewRomanPSMT-72" x="155.46875"/>
      <use xlink:href="#TimesNewRomanPSMT-6e" x="188.769531"/>
      <use xlink:href="#TimesNewRomanPSMT-2d" x="238.769531"/>
      <use xlink:href="#TimesNewRomanPSMT-53" x="272.070312"/>
      <use xlink:href="#TimesNewRomanPSMT-31" x="327.685547"/>
      <use xlink:href="#TimesNewRomanPSMT-20" x="377.685547"/>
      <use xlink:href="#TimesNewRomanPSMT-28" x="402.685547"/>
      <use xlink:href="#TimesNewRomanPSMT-32" x="435.986328"/>
      <use xlink:href="#TimesNewRomanPSMT-33" x="485.986328"/>
      <use xlink:href="#TimesNewRomanPSMT-35" x="535.986328"/>
      <use xlink:href="#TimesNewRomanPSMT-42" x="585.986328"/>
      <use xlink:href="#TimesNewRomanPSMT-2d" x="652.685547"/>
      <use xlink:href="#TimesNewRomanPSMT-41" x="685.986328"/>
      <use xlink:href="#TimesNewRomanPSMT-32" x="758.203125"/>
      <use xlink:href="#TimesNewRomanPSMT-32" x="808.203125"/>
      <use xlink:href="#TimesNewRomanPSMT-42" x="858.203125"/>
      <use xlink:href="#TimesNewRomanPSMT-29" x="924.902344"/>
     </g>
    </g>
    <g id="line2d_43">
     <path d="M 1018.640983 409.049648 
L 1028.640983 409.049648 
L 1038.640983 409.049648 
" style="fill: none; stroke: #00a087; stroke-opacity: 0.8; stroke-width: 1.5; stroke-linecap: square"/>
    </g>
    <g id="text_33">
     <!-- Qwen2.5-VL-72B -->
     <g transform="translate(1046.640983 412.549648)scale(0.1 -0.1)">
      <defs>
       <path id="TimesNewRomanPSMT-77" d="M 41 2863 
L 1241 2863 
L 1241 2747 
Q 1075 2734 1023 2687 
Q 972 2641 972 2553 
Q 972 2456 1025 2319 
L 1638 672 
L 2253 2013 
L 2091 2434 
Q 2016 2622 1894 2694 
Q 1825 2738 1638 2747 
L 1638 2863 
L 3000 2863 
L 3000 2747 
Q 2775 2738 2681 2666 
Q 2619 2616 2619 2506 
Q 2619 2444 2644 2378 
L 3294 734 
L 3897 2319 
Q 3959 2488 3959 2588 
Q 3959 2647 3898 2694 
Q 3838 2741 3659 2747 
L 3659 2863 
L 4563 2863 
L 4563 2747 
Q 4291 2706 4163 2378 
L 3206 -88 
L 3078 -88 
L 2363 1741 
L 1528 -88 
L 1413 -88 
L 494 2319 
Q 403 2547 315 2626 
Q 228 2706 41 2747 
L 41 2863 
z
" transform="scale(0.015625)"/>
       <path id="TimesNewRomanPSMT-2e" d="M 800 606 
Q 947 606 1047 504 
Q 1147 403 1147 259 
Q 1147 116 1045 14 
Q 944 -88 800 -88 
Q 656 -88 554 14 
Q 453 116 453 259 
Q 453 406 554 506 
Q 656 606 800 606 
z
" transform="scale(0.015625)"/>
       <path id="TimesNewRomanPSMT-56" d="M 4544 4238 
L 4544 4122 
Q 4319 4081 4203 3978 
Q 4038 3825 3909 3509 
L 2431 -97 
L 2316 -97 
L 728 3556 
Q 606 3838 556 3900 
Q 478 3997 364 4051 
Q 250 4106 56 4122 
L 56 4238 
L 1788 4238 
L 1788 4122 
Q 1494 4094 1406 4022 
Q 1319 3950 1319 3838 
Q 1319 3681 1463 3350 
L 2541 866 
L 3541 3319 
Q 3688 3681 3688 3822 
Q 3688 3913 3597 3995 
Q 3506 4078 3291 4113 
Q 3275 4116 3238 4122 
L 3238 4238 
L 4544 4238 
z
" transform="scale(0.015625)"/>
      </defs>
      <use xlink:href="#TimesNewRomanPSMT-51"/>
      <use xlink:href="#TimesNewRomanPSMT-77" x="72.216797"/>
      <use xlink:href="#TimesNewRomanPSMT-65" x="144.433594"/>
      <use xlink:href="#TimesNewRomanPSMT-6e" x="188.818359"/>
      <use xlink:href="#TimesNewRomanPSMT-32" x="238.818359"/>
      <use xlink:href="#TimesNewRomanPSMT-2e" x="288.818359"/>
      <use xlink:href="#TimesNewRomanPSMT-35" x="313.818359"/>
      <use xlink:href="#TimesNewRomanPSMT-2d" x="363.818359"/>
      <use xlink:href="#TimesNewRomanPSMT-56" x="397.119141"/>
      <use xlink:href="#TimesNewRomanPSMT-4c" x="469.335938"/>
      <use xlink:href="#TimesNewRomanPSMT-2d" x="530.419922"/>
      <use xlink:href="#TimesNewRomanPSMT-37" x="563.720703"/>
      <use xlink:href="#TimesNewRomanPSMT-32" x="613.720703"/>
      <use xlink:href="#TimesNewRomanPSMT-42" x="663.720703"/>
     </g>
    </g>
    <g id="line2d_44">
     <path d="M 1018.640983 423.18871 
L 1028.640983 423.18871 
L 1038.640983 423.18871 
" style="fill: none; stroke: #f39b7f; stroke-opacity: 0.8; stroke-width: 1.5; stroke-linecap: square"/>
    </g>
    <g id="text_34">
     <!-- o3 -->
     <g transform="translate(1046.640983 426.68871)scale(0.1 -0.1)">
      <use xlink:href="#TimesNewRomanPSMT-6f"/>
      <use xlink:href="#TimesNewRomanPSMT-33" x="50"/>
     </g>
    </g>
   </g>
  </g>
 </g>
 <defs>
  <clipPath id="p940ee1258d">
   <path d="M 503.925568 288 
C 503.925568 259.051883 498.22342 230.38525 487.145456 203.640677 
C 476.067491 176.896104 459.829148 152.593706 439.359738 132.124296 
C 418.890328 111.654887 394.58793 95.416543 367.843357 84.338579 
C 341.098784 73.260614 312.432151 67.558466 283.484034 67.558466 
C 254.535917 67.558466 225.869284 73.260614 199.124711 84.338579 
C 172.380138 95.416543 148.07774 111.654887 127.60833 132.124296 
C 107.138921 152.593706 90.900577 176.896104 79.822613 203.640677 
C 68.744648 230.38525 63.0425 259.051883 63.0425 288 
C 63.0425 316.948117 68.744648 345.61475 79.822613 372.359323 
C 90.900577 399.103896 107.138921 423.406294 127.60833 443.875704 
C 148.07774 464.345113 172.380138 480.583457 199.124711 491.661421 
C 225.869284 502.739386 254.535917 508.441534 283.484034 508.441534 
C 312.432151 508.441534 341.098784 502.739386 367.843357 491.661421 
C 394.58793 480.583457 418.890328 464.345113 439.359738 443.875704 
C 459.829148 423.406294 476.067491 399.103896 487.145456 372.359323 
C 498.22342 345.61475 503.925568 316.948117 503.925568 288 
M 283.484034 288 
C 283.484034 288 283.484034 288 283.484034 288 
C 283.484034 288 283.484034 288 283.484034 288 
C 283.484034 288 283.484034 288 283.484034 288 
C 283.484034 288 283.484034 288 283.484034 288 
C 283.484034 288 283.484034 288 283.484034 288 
C 283.484034 288 283.484034 288 283.484034 288 
C 283.484034 288 283.484034 288 283.484034 288 
C 283.484034 288 283.484034 288 283.484034 288 
C 283.484034 288 283.484034 288 283.484034 288 
C 283.484034 288 283.484034 288 283.484034 288 
C 283.484034 288 283.484034 288 283.484034 288 
C 283.484034 288 283.484034 288 283.484034 288 
C 283.484034 288 283.484034 288 283.484034 288 
C 283.484034 288 283.484034 288 283.484034 288 
C 283.484034 288 283.484034 288 283.484034 288 
C 283.484034 288 283.484034 288 283.484034 288 
M 503.925568 288 
z
"/>
  </clipPath>
  <clipPath id="p172b6f1a32">
   <path d="M 1085.327273 288 
C 1085.327273 259.051883 1079.625125 230.38525 1068.54716 203.640677 
C 1057.469195 176.896104 1041.230852 152.593706 1020.761442 132.124296 
C 1000.292032 111.654887 975.989634 95.416543 949.245062 84.338579 
C 922.500489 73.260614 893.833856 67.558466 864.885739 67.558466 
C 835.937622 67.558466 807.270989 73.260614 780.526416 84.338579 
C 753.781843 95.416543 729.479445 111.654887 709.010035 132.124296 
C 688.540625 152.593706 672.302282 176.896104 661.224317 203.640677 
C 650.146352 230.38525 644.444205 259.051883 644.444205 288 
C 644.444205 316.948117 650.146352 345.61475 661.224317 372.359323 
C 672.302282 399.103896 688.540625 423.406294 709.010035 443.875704 
C 729.479445 464.345113 753.781843 480.583457 780.526416 491.661421 
C 807.270989 502.739386 835.937622 508.441534 864.885739 508.441534 
C 893.833856 508.441534 922.500489 502.739386 949.245062 491.661421 
C 975.989634 480.583457 1000.292032 464.345113 1020.761442 443.875704 
C 1041.230852 423.406294 1057.469195 399.103896 1068.54716 372.359323 
C 1079.625125 345.61475 1085.327273 316.948117 1085.327273 288 
M 864.885739 288 
C 864.885739 288 864.885739 288 864.885739 288 
C 864.885739 288 864.885739 288 864.885739 288 
C 864.885739 288 864.885739 288 864.885739 288 
C 864.885739 288 864.885739 288 864.885739 288 
C 864.885739 288 864.885739 288 864.885739 288 
C 864.885739 288 864.885739 288 864.885739 288 
C 864.885739 288 864.885739 288 864.885739 288 
C 864.885739 288 864.885739 288 864.885739 288 
C 864.885739 288 864.885739 288 864.885739 288 
C 864.885739 288 864.885739 288 864.885739 288 
C 864.885739 288 864.885739 288 864.885739 288 
C 864.885739 288 864.885739 288 864.885739 288 
C 864.885739 288 864.885739 288 864.885739 288 
C 864.885739 288 864.885739 288 864.885739 288 
C 864.885739 288 864.885739 288 864.885739 288 
C 864.885739 288 864.885739 288 864.885739 288 
M 1085.327273 288 
z
"/>
  </clipPath>
 </defs>
</svg>
